<svg width="776" height="389" viewBox="0 0 776 389" fill="none" xmlns="http://www.w3.org/2000/svg">
<path d="M6.01562 387.174L24.2773 367.408V256.012L6.01562 236.246V234.42H94.3164C108.926 234.42 121.172 235.995 131.055 239.146C140.938 242.226 148.314 246.523 153.184 252.037C158.053 257.551 160.488 263.889 160.488 271.051C160.488 276.708 158.877 282.008 155.654 286.949C152.432 291.891 147.598 296.223 141.152 299.947C134.707 303.6 126.794 306.357 117.412 308.219V308.541C128.298 310.045 137.572 312.659 145.234 316.383C152.897 320.035 158.662 324.583 162.529 330.025C166.468 335.468 168.438 341.52 168.438 348.18C168.438 363.076 161.204 373.603 146.738 379.762C132.272 385.921 111.432 389 84.2188 389H6.01562V387.174ZM83.1445 306.393C95.319 306.393 104.45 303.456 110.537 297.584C116.624 291.712 119.668 283.548 119.668 273.092C119.668 262.708 116.732 254.615 110.859 248.814C104.987 243.014 95.7845 240.113 83.252 240.113H63.4863V306.393H83.1445ZM82.9297 383.307C97.5391 383.307 108.389 380.335 115.479 374.391C122.568 368.375 126.113 359.28 126.113 347.105C126.113 336.077 122.747 327.483 116.016 321.324C109.284 315.094 98.7923 311.979 84.541 311.979H63.4863V383.307H82.9297Z" fill="black"/>
<path d="M199.444 261.044L189.956 262.289L189.8 260.422C198.822 256.222 205.822 250.622 205.822 238.333V212.044C205.822 197.889 198.044 192.444 184.667 192.444H170.667V306H182.333V264.933C187.156 262.756 189.8 264.778 190.422 268.667L196.333 306H208.156L199.444 261.044ZM183.578 203.022C191.356 203.022 194.156 205.822 194.156 215.933V247.667C194.156 253.111 192.289 256.533 185.289 259.489L182.333 260.733V203.022H183.578Z" fill="black"/>
<path d="M240.545 263.172C234.62 263.172 229.445 261.984 225.018 259.607C220.623 257.231 217.238 253.878 214.861 249.549C212.518 245.219 211.346 240.223 211.346 234.559C211.346 232.247 211.574 229.725 212.029 226.99C213.266 219.992 215.838 213.742 219.744 208.24C223.683 202.706 228.566 198.393 234.393 195.301C240.252 192.176 246.567 190.613 253.338 190.613C259.262 190.613 264.438 191.818 268.865 194.227C273.325 196.635 276.759 200.021 279.168 204.383C281.577 208.712 282.781 213.725 282.781 219.422C282.781 221.733 282.553 224.223 282.098 226.893C280.861 233.891 278.273 240.141 274.334 245.643C270.395 251.144 265.48 255.441 259.588 258.533C253.729 261.626 247.381 263.172 240.545 263.172ZM240.984 260.779C245.346 260.779 249.285 259.428 252.801 256.727C256.349 253.992 259.344 250.102 261.785 245.057C264.259 239.979 266.115 233.956 267.352 226.99C268.133 222.433 268.523 218.299 268.523 214.588C268.523 207.719 267.205 202.413 264.568 198.67C261.932 194.926 258.058 193.055 252.947 193.055C248.585 193.055 244.646 194.422 241.131 197.156C237.648 199.891 234.686 203.797 232.244 208.875C229.803 213.953 227.964 219.992 226.727 226.99C225.945 231.515 225.555 235.649 225.555 239.393C225.555 246.229 226.84 251.502 229.412 255.213C232.016 258.924 235.874 260.779 240.984 260.779Z" fill="black"/>
<path d="M368.797 119.84C392.69 119.84 412.319 126.936 427.684 141.129C443.048 155.257 450.73 171.793 450.73 190.738C450.73 210.27 442.885 226.969 427.195 240.836C411.505 254.638 392.039 261.539 368.797 261.539C346.141 261.539 326.805 254.638 310.789 240.836C294.773 226.969 286.766 210.27 286.766 190.738C286.766 171.142 294.611 154.443 310.301 140.641C325.991 126.773 345.49 119.84 368.797 119.84ZM369.09 123.844C354.767 123.844 343.341 130.061 334.812 142.496C326.284 154.866 322.02 170.947 322.02 190.738C322.02 210.465 326.447 226.546 335.301 238.98C344.155 251.35 355.418 257.535 369.09 257.535C383.348 257.535 394.741 251.35 403.27 238.98C411.798 226.546 416.062 210.465 416.062 190.738C416.062 170.947 411.635 154.866 402.781 142.496C393.927 130.061 382.697 123.844 369.09 123.844Z" fill="black"/>
<path d="M509.031 181.387C509.031 178.496 509.988 176.094 511.902 174.18C513.855 172.227 516.238 171.25 519.051 171.25C521.746 171.25 524.07 172.227 526.023 174.18C527.977 176.133 528.953 178.496 528.953 181.27C528.953 183.965 527.977 186.289 526.023 188.242C524.07 190.195 521.746 191.172 519.051 191.172C516.395 191.172 514.051 190.215 512.02 188.301C510.027 186.348 509.031 184.043 509.031 181.387Z" fill="black"/>
<path d="M490 190H500.267L498.933 92.6667H490.533L482.8 155.733H481.333L470.667 92.6667H460.667L459.333 190H469.867L466.267 120.4H467.6L478.667 183.333H481.733L490.267 120.4H491.733L490 190Z" fill="black"/>
<path d="M610.539 102.252C617.707 102.252 623.596 104.381 628.205 108.639C632.814 112.877 635.119 117.838 635.119 123.521C635.119 129.381 632.766 134.391 628.059 138.551C623.352 142.691 617.512 144.762 610.539 144.762C603.742 144.762 597.941 142.691 593.137 138.551C588.332 134.391 585.93 129.381 585.93 123.521C585.93 117.643 588.283 112.633 592.99 108.492C597.697 104.332 603.547 102.252 610.539 102.252ZM610.627 103.453C606.33 103.453 602.902 105.318 600.344 109.049C597.785 112.76 596.506 117.584 596.506 123.521C596.506 129.439 597.834 134.264 600.49 137.994C603.146 141.705 606.525 143.561 610.627 143.561C614.904 143.561 618.322 141.705 620.881 137.994C623.439 134.264 624.719 129.439 624.719 123.521C624.719 117.584 623.391 112.76 620.734 109.049C618.078 105.318 614.709 103.453 610.627 103.453Z" fill="black"/>
<path d="M566.3 64.9C562.94 64.9 559.64 65.86 556.4 67.78C553.16 69.7 550.28 73.06 547.76 77.86C545.24 82.54 543.2 88.9 541.64 96.94C540.08 104.86 539.3 114.88 539.3 127C539.3 139.12 540.08 149.2 541.64 157.24C543.2 165.16 545.3 171.52 547.94 176.32C550.58 181 553.64 184.3 557.12 186.22C560.6 188.14 564.26 189.1 568.1 189.1C571.22 189.1 574.4 188.26 577.64 186.58C580.88 184.9 583.82 182.56 586.46 179.56C589.22 176.56 591.5 173.02 593.3 168.94C595.22 164.86 596.42 160.48 596.9 155.8H599.6C599.12 161.2 597.92 166.18 596 170.74C594.08 175.18 591.62 179.08 588.62 182.44C585.74 185.68 582.38 188.2 578.54 190C574.7 191.8 570.62 192.7 566.3 192.7C560.66 192.7 555.2 191.38 549.92 188.74C544.64 185.98 539.9 181.9 535.7 176.5C531.62 170.98 528.32 164.14 525.8 155.98C523.4 147.7 522.2 138.04 522.2 127C522.2 115.96 523.4 106.36 525.8 98.2C528.32 89.92 531.56 83.08 535.52 77.68C539.6 72.16 544.16 68.08 549.2 65.44C554.24 62.68 559.34 61.3 564.5 61.3C567.38 61.3 569.96 61.78 572.24 62.74C574.64 63.7 576.68 64.78 578.36 65.98C580.28 67.3 581.96 68.8 583.4 70.48C584.36 68.68 585.62 67 587.18 65.44C588.86 63.76 590.6 62.68 592.4 62.2H595.1C594.86 64 594.68 65.8 594.56 67.6C594.44 69.28 594.32 71.08 594.2 73C594.2 74.8 594.2 76.6 594.2 78.4C594.2 80.44 594.2 82.48 594.2 84.52C594.32 86.44 594.44 88.24 594.56 89.92C594.68 91.84 594.86 93.7 595.1 95.5H592.4C589.64 85.54 585.92 77.98 581.24 72.82C576.68 67.54 571.7 64.9 566.3 64.9Z" fill="black"/>
<path d="M668.555 60.2031L699.492 122.605L729.785 60.2031H762.129V62.4883C754.707 62.4883 749.883 63.8164 747.656 66.4727C745.469 69.1289 744.375 73.3281 744.375 79.0703V123.133C744.375 128.875 745.469 133.074 747.656 135.73C749.883 138.387 754.707 139.715 762.129 139.715V142H709.453V139.715C717.266 139.715 722.266 138.387 724.453 135.73C726.68 133.074 727.793 128.875 727.793 123.133V69.4023L692.578 142H690.176L654.551 69.2266V119.617C654.551 125.359 655.938 130.145 658.711 133.973C661.523 137.801 666.055 139.715 672.305 139.715V142H634.395V139.715C640.645 139.715 645.156 137.996 647.93 134.559C650.742 131.121 652.148 126.531 652.148 120.789V79.0703C652.148 73.3281 651.035 69.1289 648.809 66.4727C646.621 63.8164 641.816 62.4883 634.395 62.4883V60.2031H668.555Z" fill="black"/>
</svg>
