<svg width="880" height="482" viewBox="0 0 880 482" fill="none" xmlns="http://www.w3.org/2000/svg">
<path d="M14.9746 22.8027V37.6914H19.7871C23.9121 37.6914 26.5833 36.9896 27.8008 35.5859C29.0326 34.168 29.6484 32.5781 29.6484 30.8164V29.6348C29.6484 27.5579 28.9896 25.9036 27.6719 24.6719C26.3685 23.4258 23.998 22.8027 20.5605 22.8027H14.9746ZM14.9746 38.5723V45.082C14.9746 47.1875 15.3685 48.7201 16.1562 49.6797C16.944 50.6393 19.0208 51.1191 22.3867 51.1191V52H2.44922V51.1621C5.02734 51.1621 6.71745 50.6751 7.51953 49.7012C8.33594 48.7272 8.74414 47.1875 8.74414 45.082V28.9258C8.74414 26.8203 8.33594 25.2806 7.51953 24.3066C6.71745 23.3327 5.02734 22.8457 2.44922 22.8457V22.0078H22.2793C27.5072 22.0078 31.224 22.7669 33.4297 24.2852C35.6497 25.7891 36.7598 27.6224 36.7598 29.7852V30.7305C36.7598 33.151 35.5638 35.0632 33.1719 36.4668C30.7943 37.8704 28.0013 38.5723 24.793 38.5723H14.9746Z" fill="black"/>
<path d="M218.975 115.803V130.691H223.787C227.912 130.691 230.583 129.99 231.801 128.586C233.033 127.168 233.648 125.578 233.648 123.816V122.635C233.648 120.558 232.99 118.904 231.672 117.672C230.368 116.426 227.998 115.803 224.561 115.803H218.975ZM218.975 131.572V138.082C218.975 140.188 219.368 141.72 220.156 142.68C220.944 143.639 223.021 144.119 226.387 144.119V145H206.449V144.162C209.027 144.162 210.717 143.675 211.52 142.701C212.336 141.727 212.744 140.188 212.744 138.082V121.926C212.744 119.82 212.336 118.281 211.52 117.307C210.717 116.333 209.027 115.846 206.449 115.846V115.008H226.279C231.507 115.008 235.224 115.767 237.43 117.285C239.65 118.789 240.76 120.622 240.76 122.785V123.73C240.76 126.151 239.564 128.063 237.172 129.467C234.794 130.87 232.001 131.572 228.793 131.572H218.975Z" fill="black"/>
<path d="M242.377 134.816H254.15L248.242 121.604L242.377 134.816ZM250.369 114.428H251.314L263.861 141.627C264.434 142.673 265.193 143.36 266.139 143.689C267.084 144.005 268.087 144.162 269.146 144.162V145H251.68V144.162C254.158 144.162 255.697 144.005 256.299 143.689C256.915 143.36 257.223 142.852 257.223 142.164C257.194 141.434 256.313 139.249 254.58 135.611H242.076L240.766 138.555C240.622 138.927 240.551 139.514 240.551 140.316C240.68 141.634 241.145 142.608 241.947 143.238C242.764 143.854 243.738 144.162 244.869 144.162V145H232.559V144.162C236.053 144.162 239.104 140.775 241.711 134L250.369 114.428Z" fill="black"/>
<path d="M310.861 145H270.385V144.162C272.963 144.162 274.653 143.675 275.455 142.701C276.271 141.727 276.68 140.188 276.68 138.082V121.926C276.68 119.82 276.271 118.281 275.455 117.307C274.653 116.333 272.963 115.846 270.385 115.846V115.008H289.291V115.846C286.713 115.846 285.016 116.333 284.199 117.307C283.397 118.281 282.996 119.82 282.996 121.926V144.162H299.174V121.926C299.174 119.82 298.766 118.281 297.949 117.307C297.147 116.333 295.457 115.846 292.879 115.846V115.008H311.785V115.846C309.207 115.846 307.51 116.333 306.693 117.307C305.891 118.281 305.49 119.82 305.49 121.926V138.082C305.49 140.188 305.891 141.727 306.693 142.701C307.51 143.675 309.207 144.162 311.785 144.162V145H311.699C311.57 149.197 310.518 152.29 308.541 154.281C306.564 156.272 304.194 157.339 301.43 157.482C298.938 157.482 296.209 156.795 293.244 155.42C290.294 154.059 287.536 153.379 284.973 153.379C283.039 153.379 281.471 153.766 280.268 154.539C279.079 155.312 277.926 156.673 276.809 158.621L276.121 157.934C277.281 154.496 278.842 151.99 280.805 150.414C282.781 148.853 284.643 148.072 286.391 148.072C288.668 148.072 291.311 148.91 294.318 150.586C297.326 152.262 300.327 153.1 303.32 153.1C305.956 153.1 307.818 152.419 308.906 151.059C310.009 149.698 310.661 147.678 310.861 145Z" fill="black"/>
<path d="M49.8555 52.7773V66.1836H52.7559C58.7428 66.1836 62.7962 65.1022 64.916 62.9395C67.0501 60.7767 68.4538 57.998 69.127 54.6035H70.0078V67H37.2227V66.1621C39.8008 66.1621 41.4909 65.6751 42.293 64.7012C43.1094 63.7272 43.5176 62.1875 43.5176 60.082V43.9258C43.5176 41.8203 43.1094 40.2806 42.293 39.3066C41.4909 38.3327 39.8008 37.8457 37.2227 37.8457V37.0078H69.2129V48.6738H68.4824C67.222 44.1335 65.6035 41.1901 63.627 39.8438C61.6647 38.4831 58.3418 37.8027 53.6582 37.8027H49.8555V51.9609C52.7201 51.9609 54.9115 51.209 56.4297 49.7051C57.9479 48.2012 58.8359 45.8021 59.0938 42.5078H59.8887V62.2305H59.0938C58.8359 58.9362 57.9479 56.5371 56.4297 55.0332C54.9115 53.5293 52.7201 52.7773 49.8555 52.7773Z" fill="black"/>
<path d="M116.264 93.2188C116.45 93.806 116.715 94.3001 117.059 94.7012C117.861 95.6751 119.551 96.1621 122.129 96.1621V97H103.223V96.1621C105.801 96.1621 107.491 95.6751 108.293 94.7012C109.109 93.7272 109.518 92.1875 109.518 90.082V73.9258C109.518 71.8203 109.109 70.2806 108.293 69.3066C107.491 68.3327 105.801 67.8457 103.223 67.8457V67.0078H122.129V67.8457C119.551 67.8457 117.854 68.3327 117.037 69.3066C116.235 70.2806 115.834 71.8203 115.834 73.9258V90.082C115.834 90.8268 115.884 91.5 115.984 92.1016L131.732 71.2402C131.518 70.4525 131.21 69.8079 130.809 69.3066C129.992 68.3327 128.295 67.8457 125.717 67.8457V67.0078H144.623V67.8457C142.045 67.8457 140.348 68.3327 139.531 69.3066C138.729 70.2806 138.328 71.8203 138.328 73.9258V90.082C138.328 92.1875 138.729 93.7272 139.531 94.7012C140.348 95.6751 142.045 96.1621 144.623 96.1621V97H125.717V96.1621C128.295 96.1621 129.985 95.6751 130.787 94.7012C131.604 93.7272 132.012 92.1875 132.012 90.082V73.9258C132.012 73.3815 131.983 72.873 131.926 72.4004L116.264 93.2188Z" fill="black"/>
<path d="M73.2227 67V66.1621C75.8008 66.1621 77.4909 65.6751 78.293 64.7012C79.1094 63.7272 79.5176 62.1875 79.5176 60.082V43.9258C79.5176 41.8203 79.1094 40.2806 78.293 39.3066C77.4909 38.3327 75.8008 37.8457 73.2227 37.8457V37.0078H103.924V49.9844H103.107C102.105 45.1576 100.594 41.9206 98.5742 40.2734C96.569 38.6263 93.1673 37.8027 88.3691 37.8027H85.748V60.082C85.748 62.1875 86.1419 63.7272 86.9297 64.7012C87.7174 65.6751 89.7943 66.1621 93.1602 66.1621H94.3203V67H73.2227Z" fill="black"/>
<path d="M160.617 66.3203C163.854 66.3203 166.318 66.929 168.008 68.1465C169.712 69.3639 170.829 69.9727 171.359 69.9727C172.29 69.9727 173.551 68.9199 175.141 66.8145H175.936L176.537 81.1875H175.871C174.353 76.2604 172.276 72.6868 169.641 70.4668C167.02 68.2324 164.277 67.1152 161.412 67.1152C158.304 67.1152 156.105 68.4115 154.816 71.0039C153.542 73.582 152.904 77.3132 152.904 82.1973C152.904 87.9551 153.821 91.8079 155.654 93.7559C157.502 95.7038 159.837 96.6777 162.658 96.6777C166.325 96.6777 169.304 95.625 171.596 93.5195C173.902 91.4141 175.398 89.015 176.086 86.3223H176.967C176.351 89.1296 174.811 91.7077 172.348 94.0566C169.884 96.3913 166.533 97.5586 162.293 97.5586C157.495 97.5586 153.434 95.9544 150.111 92.7461C146.803 89.5234 145.148 85.8926 145.148 81.8535C145.148 77.6999 146.753 74.0762 149.961 70.9824C153.184 67.8743 156.736 66.3203 160.617 66.3203Z" fill="black"/>
<path d="M197.396 109.082C197.396 111.188 197.798 112.727 198.6 113.701C199.416 114.675 201.113 115.162 203.691 115.162H207.365V116H181.111V115.162H184.785C187.363 115.162 189.053 114.675 189.855 113.701C190.672 112.727 191.08 111.188 191.08 109.082V86.8027H189.684C185.888 86.8027 182.945 88.3066 180.854 91.3145C178.777 94.3223 177.617 97.638 177.373 101.262H176.578V86.0078H211.898V101.262H211.104C210.86 97.638 209.693 94.3223 207.602 91.3145C205.525 88.3066 202.589 86.8027 198.793 86.8027H197.396V109.082Z" fill="black"/>
<path d="M324.264 128.219C324.45 128.806 324.715 129.3 325.059 129.701C325.861 130.675 327.551 131.162 330.129 131.162V132H311.223V131.162C313.801 131.162 315.491 130.675 316.293 129.701C317.109 128.727 317.518 127.188 317.518 125.082V108.926C317.518 106.82 317.109 105.281 316.293 104.307C315.491 103.333 313.801 102.846 311.223 102.846V102.008H330.129V102.846C327.551 102.846 325.854 103.333 325.037 104.307C324.235 105.281 323.834 106.82 323.834 108.926V125.082C323.834 125.827 323.884 126.5 323.984 127.102L339.732 106.24C339.518 105.452 339.21 104.808 338.809 104.307C337.992 103.333 336.295 102.846 333.717 102.846V102.008H352.623V102.846C350.045 102.846 348.348 103.333 347.531 104.307C346.729 105.281 346.328 106.82 346.328 108.926V125.082C346.328 127.188 346.729 128.727 347.531 129.701C348.348 130.675 350.045 131.162 352.623 131.162V132H333.717V131.162C336.295 131.162 337.985 130.675 338.787 129.701C339.604 128.727 340.012 127.188 340.012 125.082V108.926C340.012 108.382 339.983 107.873 339.926 107.4L324.264 128.219Z" fill="black"/>
<path d="M377.529 85.8027H370.096C366.157 85.8027 363.529 86.4329 362.211 87.6934C360.893 88.9538 360.234 90.5007 360.234 92.334V93C360.234 94.819 360.872 96.3659 362.146 97.6406C363.421 98.901 365.978 99.5312 369.816 99.5312H377.529V85.8027ZM390.141 85.0078V85.8457C387.562 85.8457 385.865 86.3327 385.049 87.3066C384.247 88.2806 383.846 89.8203 383.846 91.9258V108.082C383.846 110.188 384.247 111.727 385.049 112.701C385.865 113.675 387.562 114.162 390.141 114.162V115H371.234V114.162C373.812 114.162 375.503 113.675 376.305 112.701C377.121 111.727 377.529 110.188 377.529 108.082V100.326H370.934L360.514 115H349.148V114.162C350.523 114.162 351.712 114.005 352.715 113.689C353.717 113.374 354.627 112.68 355.443 111.605L360.6 104.365C362.29 103.964 363.658 103.542 364.703 103.098C365.749 102.639 367.475 101.715 369.881 100.326H366.057C362.404 100.326 359.318 99.6458 356.797 98.2852C354.29 96.9245 353.037 95.2344 353.037 93.2148V92.2695C353.037 90.4648 353.947 88.8034 355.766 87.2852C357.599 85.7669 360.85 85.0078 365.52 85.0078H390.141Z" fill="black"/>
<path d="M422.834 150.197V158.082C422.834 160.188 423.235 161.727 424.037 162.701C424.854 163.675 426.551 164.162 429.129 164.162V165H410.223V164.162C412.801 164.162 414.491 163.675 415.293 162.701C416.109 161.727 416.518 160.188 416.518 158.082V141.926C416.518 139.82 416.109 138.281 415.293 137.307C414.491 136.333 412.801 135.846 410.223 135.846V135.008H429.129V135.846C426.551 135.846 424.854 136.333 424.037 137.307C423.235 138.281 422.834 139.82 422.834 141.926V149.316H439.012V141.926C439.012 139.82 438.604 138.281 437.787 137.307C436.985 136.333 435.295 135.846 432.717 135.846V135.008H451.623V135.846C449.045 135.846 447.348 136.333 446.531 137.307C445.729 138.281 445.328 139.82 445.328 141.926V158.082C445.328 160.188 445.729 161.727 446.531 162.701C447.348 163.675 449.045 164.162 451.623 164.162V165H432.717V164.162C435.295 164.162 436.985 163.675 437.787 162.701C438.604 161.727 439.012 160.188 439.012 158.082V150.197H422.834Z" fill="black"/>
<path d="M454.377 163.816H466.15L460.242 150.604L454.377 163.816ZM462.369 143.428H463.314L475.861 170.627C476.434 171.673 477.193 172.36 478.139 172.689C479.084 173.005 480.087 173.162 481.146 173.162V174H463.68V173.162C466.158 173.162 467.697 173.005 468.299 172.689C468.915 172.36 469.223 171.852 469.223 171.164C469.194 170.434 468.313 168.249 466.58 164.611H454.076L452.766 167.555C452.622 167.927 452.551 168.514 452.551 169.316C452.68 170.634 453.145 171.608 453.947 172.238C454.764 172.854 455.738 173.162 456.869 173.162V174H444.559V173.162C448.053 173.162 451.104 169.775 453.711 163L462.369 143.428Z" fill="black"/>
<path d="M110.016 480.174L128.277 460.408V349.012L110.016 329.246V327.42H198.316C212.926 327.42 225.172 328.995 235.055 332.146C244.938 335.226 252.314 339.523 257.184 345.037C262.053 350.551 264.488 356.889 264.488 364.051C264.488 369.708 262.877 375.008 259.654 379.949C256.432 384.891 251.598 389.223 245.152 392.947C238.707 396.6 230.794 399.357 221.412 401.219V401.541C232.298 403.045 241.572 405.659 249.234 409.383C256.897 413.035 262.662 417.583 266.529 423.025C270.468 428.468 272.438 434.52 272.438 441.18C272.438 456.076 265.204 466.603 250.738 472.762C236.272 478.921 215.432 482 188.219 482H110.016V480.174ZM187.145 399.393C199.319 399.393 208.45 396.456 214.537 390.584C220.624 384.712 223.668 376.548 223.668 366.092C223.668 355.708 220.732 347.615 214.859 341.814C208.987 336.014 199.785 333.113 187.252 333.113H167.486V399.393H187.145ZM186.93 476.307C201.539 476.307 212.389 473.335 219.479 467.391C226.568 461.375 230.113 452.28 230.113 440.105C230.113 429.077 226.747 420.483 220.016 414.324C213.284 408.094 202.792 404.979 188.541 404.979H167.486V476.307H186.93Z" fill="black"/>
<path d="M303.444 354.044L293.956 355.289L293.8 353.422C302.822 349.222 309.822 343.622 309.822 331.333V305.044C309.822 290.889 302.044 285.444 288.667 285.444H274.667V399H286.333V357.933C291.156 355.756 293.8 357.778 294.422 361.667L300.333 399H312.156L303.444 354.044ZM287.578 296.022C295.356 296.022 298.156 298.822 298.156 308.933V340.667C298.156 346.111 296.289 349.533 289.289 352.489L286.333 353.733V296.022H287.578Z" fill="black"/>
<path d="M344.545 356.172C338.62 356.172 333.445 354.984 329.018 352.607C324.623 350.231 321.238 346.878 318.861 342.549C316.518 338.219 315.346 333.223 315.346 327.559C315.346 325.247 315.574 322.725 316.029 319.99C317.266 312.992 319.838 306.742 323.744 301.24C327.683 295.706 332.566 291.393 338.393 288.301C344.252 285.176 350.567 283.613 357.338 283.613C363.262 283.613 368.438 284.818 372.865 287.227C377.325 289.635 380.759 293.021 383.168 297.383C385.577 301.712 386.781 306.725 386.781 312.422C386.781 314.733 386.553 317.223 386.098 319.893C384.861 326.891 382.273 333.141 378.334 338.643C374.395 344.144 369.48 348.441 363.588 351.533C357.729 354.626 351.381 356.172 344.545 356.172ZM344.984 353.779C349.346 353.779 353.285 352.428 356.801 349.727C360.349 346.992 363.344 343.102 365.785 338.057C368.259 332.979 370.115 326.956 371.352 319.99C372.133 315.433 372.523 311.299 372.523 307.588C372.523 300.719 371.205 295.413 368.568 291.67C365.932 287.926 362.058 286.055 356.947 286.055C352.585 286.055 348.646 287.422 345.131 290.156C341.648 292.891 338.686 296.797 336.244 301.875C333.803 306.953 331.964 312.992 330.727 319.99C329.945 324.515 329.555 328.649 329.555 332.393C329.555 339.229 330.84 344.502 333.412 348.213C336.016 351.924 339.874 353.779 344.984 353.779Z" fill="black"/>
<path d="M472.797 212.84C496.69 212.84 516.319 219.936 531.684 234.129C547.048 248.257 554.73 264.793 554.73 283.738C554.73 303.27 546.885 319.969 531.195 333.836C515.505 347.638 496.039 354.539 472.797 354.539C450.141 354.539 430.805 347.638 414.789 333.836C398.773 319.969 390.766 303.27 390.766 283.738C390.766 264.142 398.611 247.443 414.301 233.641C429.991 219.773 449.49 212.84 472.797 212.84ZM473.09 216.844C458.767 216.844 447.341 223.061 438.812 235.496C430.284 247.866 426.02 263.947 426.02 283.738C426.02 303.465 430.447 319.546 439.301 331.98C448.155 344.35 459.418 350.535 473.09 350.535C487.348 350.535 498.741 344.35 507.27 331.98C515.798 319.546 520.062 303.465 520.062 283.738C520.062 263.947 515.635 247.866 506.781 235.496C497.927 223.061 486.697 216.844 473.09 216.844Z" fill="black"/>
<path d="M613.031 274.387C613.031 271.496 613.988 269.094 615.902 267.18C617.855 265.227 620.238 264.25 623.051 264.25C625.746 264.25 628.07 265.227 630.023 267.18C631.977 269.133 632.953 271.496 632.953 274.27C632.953 276.965 631.977 279.289 630.023 281.242C628.07 283.195 625.746 284.172 623.051 284.172C620.395 284.172 618.051 283.215 616.02 281.301C614.027 279.348 613.031 277.043 613.031 274.387Z" fill="black"/>
<path d="M594 283H604.267L602.933 185.667H594.533L586.8 248.733H585.333L574.667 185.667H564.667L563.333 283H573.867L570.267 213.4H571.6L582.667 276.333H585.733L594.267 213.4H595.733L594 283Z" fill="black"/>
<path d="M714.539 195.252C721.707 195.252 727.596 197.381 732.205 201.639C736.814 205.877 739.119 210.838 739.119 216.521C739.119 222.381 736.766 227.391 732.059 231.551C727.352 235.691 721.512 237.762 714.539 237.762C707.742 237.762 701.941 235.691 697.137 231.551C692.332 227.391 689.93 222.381 689.93 216.521C689.93 210.643 692.283 205.633 696.99 201.492C701.697 197.332 707.547 195.252 714.539 195.252ZM714.627 196.453C710.33 196.453 706.902 198.318 704.344 202.049C701.785 205.76 700.506 210.584 700.506 216.521C700.506 222.439 701.834 227.264 704.49 230.994C707.146 234.705 710.525 236.561 714.627 236.561C718.904 236.561 722.322 234.705 724.881 230.994C727.439 227.264 728.719 222.439 728.719 216.521C728.719 210.584 727.391 205.76 724.734 202.049C722.078 198.318 718.709 196.453 714.627 196.453Z" fill="black"/>
<path d="M670.3 157.9C666.94 157.9 663.64 158.86 660.4 160.78C657.16 162.7 654.28 166.06 651.76 170.86C649.24 175.54 647.2 181.9 645.64 189.94C644.08 197.86 643.3 207.88 643.3 220C643.3 232.12 644.08 242.2 645.64 250.24C647.2 258.16 649.3 264.52 651.94 269.32C654.58 274 657.64 277.3 661.12 279.22C664.6 281.14 668.26 282.1 672.1 282.1C675.22 282.1 678.4 281.26 681.64 279.58C684.88 277.9 687.82 275.56 690.46 272.56C693.22 269.56 695.5 266.02 697.3 261.94C699.22 257.86 700.42 253.48 700.9 248.8H703.6C703.12 254.2 701.92 259.18 700 263.74C698.08 268.18 695.62 272.08 692.62 275.44C689.74 278.68 686.38 281.2 682.54 283C678.7 284.8 674.62 285.7 670.3 285.7C664.66 285.7 659.2 284.38 653.92 281.74C648.64 278.98 643.9 274.9 639.7 269.5C635.62 263.98 632.32 257.14 629.8 248.98C627.4 240.7 626.2 231.04 626.2 220C626.2 208.96 627.4 199.36 629.8 191.2C632.32 182.92 635.56 176.08 639.52 170.68C643.6 165.16 648.16 161.08 653.2 158.44C658.24 155.68 663.34 154.3 668.5 154.3C671.38 154.3 673.96 154.78 676.24 155.74C678.64 156.7 680.68 157.78 682.36 158.98C684.28 160.3 685.96 161.8 687.4 163.48C688.36 161.68 689.62 160 691.18 158.44C692.86 156.76 694.6 155.68 696.4 155.2H699.1C698.86 157 698.68 158.8 698.56 160.6C698.44 162.28 698.32 164.08 698.2 166C698.2 167.8 698.2 169.6 698.2 171.4C698.2 173.44 698.2 175.48 698.2 177.52C698.32 179.44 698.44 181.24 698.56 182.92C698.68 184.84 698.86 186.7 699.1 188.5H696.4C693.64 178.54 689.92 170.98 685.24 165.82C680.68 160.54 675.7 157.9 670.3 157.9Z" fill="black"/>
<path d="M772.555 153.203L803.492 215.605L833.785 153.203H866.129V155.488C858.707 155.488 853.883 156.816 851.656 159.473C849.469 162.129 848.375 166.328 848.375 172.07V216.133C848.375 221.875 849.469 226.074 851.656 228.73C853.883 231.387 858.707 232.715 866.129 232.715V235H813.453V232.715C821.266 232.715 826.266 231.387 828.453 228.73C830.68 226.074 831.793 221.875 831.793 216.133V162.402L796.578 235H794.176L758.551 162.227V212.617C758.551 218.359 759.938 223.145 762.711 226.973C765.523 230.801 770.055 232.715 776.305 232.715V235H738.395V232.715C744.645 232.715 749.156 230.996 751.93 227.559C754.742 224.121 756.148 219.531 756.148 213.789V172.07C756.148 166.328 755.035 162.129 752.809 159.473C750.621 156.816 745.816 155.488 738.395 155.488V153.203H772.555Z" fill="black"/>
</svg>
