<?xml version="1.0" encoding="utf-8"?>
<!-- Generator: Adobe Illustrator 19.0.0, SVG Export Plug-In . SVG Version: 6.00 Build 0)  -->
<svg version="1.1" id="Layer_1" xmlns="http://www.w3.org/2000/svg" xmlns:xlink="http://www.w3.org/1999/xlink" x="0px" y="0px"
	 viewBox="184 69.8 979.4 654.2" style="enable-background:new 184 69.8 979.4 654.2;" xml:space="preserve">
<style type="text/css">
	.st0{display:none;}
	.st1{display:inline;fill:#13007C;}
	.st2{fill:url(#XMLID_6_);}
	.st3{fill:url(#XMLID_11_);}
	.st4{fill:url(#XMLID_12_);}
	.st5{fill:url(#XMLID_13_);}
	.st6{fill:#00FCBD;}
	.st7{display:inline;fill:#00FCBD;}
	.st8{display:inline;}
</style>
<g id="Layer_1_1_" class="st0">
	
		<image style="display:inline;overflow:visible;opacity:0.53;enable-background:new    ;" width="1921" height="1080" id="XMLID_48_" xlink:href="37658EEE.jpeg"  transform="matrix(0.9995 0 0 1 -229.9583 -337.2)">
	</image>
</g>
<g id="Layer_4" class="st0">
	
		<image style="display:inline;overflow:visible;enable-background:new    ;" width="1080" height="680" id="XMLID_101_" xlink:href="37658EF8.png"  transform="matrix(0.7333 0 0 0.7333 153.5417 74.8)">
	</image>
</g>
<g id="Layer_5">
	<g id="Layer_6" class="st0">
		<rect id="XMLID_382_" x="168.5" y="56.8" class="st1" width="1013" height="681"/>
	</g>
	
		<image style="display:none;overflow:visible;opacity:0.33;enable-background:new    ;" width="1080" height="680" id="XMLID_2_" xlink:href="37658EF9.png"  transform="matrix(1 0 0 1 153.5417 50.8)">
	</image>
	
		<image style="display:none;overflow:visible;enable-background:new    ;" width="1920" height="1080" id="XMLID_87_" xlink:href="37658EF6.jpeg"  transform="matrix(1 0 0 1 -87.4583 -291.2)">
	</image>
	
		<linearGradient id="XMLID_6_" gradientUnits="userSpaceOnUse" x1="673.7" y1="642.8" x2="673.7" y2="725.8" gradientTransform="matrix(1 0 0 -1 0 795.6)">
		<stop  offset="0" style="stop-color:#FFFFFF;stop-opacity:0"/>
		<stop  offset="0.3282" style="stop-color:#FFFFFF;stop-opacity:0.6512"/>
		<stop  offset="0.5627" style="stop-color:#FFFFFF"/>
	</linearGradient>
	<rect id="XMLID_381_" x="184" y="69.8" class="st2" width="979.4" height="83"/>
	
		<linearGradient id="XMLID_11_" gradientUnits="userSpaceOnUse" x1="1041.6853" y1="207.6666" x2="1041.6854" y2="290.6666" gradientTransform="matrix(-1 0 0 1 1715.3854 433.3334)">
		<stop  offset="0" style="stop-color:#FFFFFF;stop-opacity:0"/>
		<stop  offset="0.3282" style="stop-color:#FFFFFF;stop-opacity:0.6512"/>
		<stop  offset="0.5627" style="stop-color:#FFFFFF"/>
	</linearGradient>
	<rect id="XMLID_384_" x="184" y="641" class="st3" width="979.4" height="83"/>
	
		<linearGradient id="XMLID_12_" gradientUnits="userSpaceOnUse" x1="1228.1354" y1="373.9666" x2="1228.1354" y2="456.9666" gradientTransform="matrix(-4.489659e-011 -1 -1 4.489659e-011 639.8666 1625.5853)">
		<stop  offset="0" style="stop-color:#FFFFFF;stop-opacity:0"/>
		<stop  offset="0.3282" style="stop-color:#FFFFFF;stop-opacity:0.6512"/>
		<stop  offset="0.5627" style="stop-color:#FFFFFF"/>
	</linearGradient>
	<rect id="XMLID_3_" x="182.9" y="71" class="st4" width="83" height="652.9"/>
	
		<linearGradient id="XMLID_13_" gradientUnits="userSpaceOnUse" x1="1228.1354" y1="-157.7835" x2="1228.1354" y2="-74.7835" gradientTransform="matrix(4.489659e-011 1 1 -4.489659e-011 1240.0336 -830.6854)">
		<stop  offset="0" style="stop-color:#FFFFFF;stop-opacity:0"/>
		<stop  offset="0.3282" style="stop-color:#FFFFFF;stop-opacity:0.6512"/>
		<stop  offset="0.5627" style="stop-color:#FFFFFF"/>
	</linearGradient>
	<rect id="XMLID_4_" x="1082.3" y="71" class="st5" width="83" height="652.9"/>
	<g id="XMLID_85_">
		<g id="XMLID_308_">
			<g id="XMLID_312_">
				<g id="XMLID_373_">
					<path id="XMLID_376_" class="st6" d="M236.3,586.8c0,0-2.8,3.3-6.1,4.5c-4.3,1.6-11.6,1.7-11.6,1.7s5-2.2,7.2-6.6
						c0.9-1.8,1.3-5.2-0.3-7.5c-2.7-3.7-16.5-14.5-19.9-26.1c-2.6-8.9-2.5-11.3-3.3-19.5c-0.8-8.2,1.3-10.3-3.6-12.7
						c-5.9-2.9-7.8-9.8-7.8-9.8s7,4.1,11.3,1.5c4.3-2.6,5.5-10.7,6.4-14.2c0.9-3.5,3-10.2,4-12.2c0.9-2-3-5.1-5.2-10.1
						c-1-2.4-1-7.9-0.5-9.7c0.5-1.8,0.5-1.8,0.5-1.8s3,8.3,6.3,8.9c3.2,0.6,5.8-0.1,6.5-1.3c0.8-1.2,6.4-15.1,7.8-19.8
						c2.2-7.4,3.9-17,4.7-21.8c1.4-8.2,1.9-13.6,1.9-13.6s3.5-3,5.3-4.7c1.8-1.8,5.1-6.3,5.1-6.3l-0.8,14.8c0,0,0.1,3.1,1.4,4
						c1.1,0.8,2.3,1.3,4.1,0.6c1.8-0.7,4.3-2.3,4.3-2.3s-1.2,6.7-6,9.8c-3.7,2.3-3.1,1.2-5.4,4.6c-2.3,3.3-5.2,15.8-6.9,20.2
						c-1.7,4.4-12.4,29.8-14.4,34.8s-8.9,19.5-9.1,30.3c-0.2,10.8,0.6,30.6,12.1,39.3c11.5,8.6,14.3,9.1,14.3,9.1s0.1,3.6-0.5,8.8
						C237.5,583.3,236.3,586.8,236.3,586.8z"/>
					<path id="XMLID_375_" class="st6" d="M234.4,598.3h12.2c0,0,1-2.3,1.9-7.4c1.1-6,2.4-12.9,1-24.4c-0.3-2-1.7-7.6,1.5-10.6
						c5.6-5.2,4.3-13.3,4.3-13.3s-3.2,5.4-6,6c-2.5,0.5-3.9-1.1-4.6-2.4c-0.7-1.3-4.6-17.1-8.8-24.4s-13.8-27.1-13.8-27.1l-4.9,12.6
						l7.9,16.1c0,0,2.5,3.9,0.5,5.7c-1.9,1.7-3.1,2.3-5.1,5.8c-2.1,3.6-2.1,6.6-2.1,6.6s5.8-5,10-3.9c2.6,0.7,4.7,3.2,5.5,5.6
						c0.6,1.8,4.8,16.1,6.1,24.5c0.6,3.9,0.4,11.7-1.2,18C237.1,592.9,234.4,598.3,234.4,598.3z"/>
					<path id="XMLID_374_" class="st6" d="M208.4,491.7l2.4-6.6c0,0-4.5-6.5-5.2-9.6c-0.8-3.6-0.6-6.8-0.3-9.2
						c0.3-2.4,1.5-4.6,2.2-6.1c0,0,1.2,2.4,1.7,3.6c0.8,2,2.5,4.1,2.5,4.1s-2.8-15.3-0.9-19.6c1.9-4.2,5.3-6.2,5.3-6.2
						s4.2-1.9,5.9-3.4c1.7-1.5,3.5-4.9,3.5-4.9s-4.6,1.9-6.7,1.1c-2-0.8-2-2.2-0.4-5.4c1.6-3.1,4.5-6.8,7.9-9.5
						c3.5-2.7,5.6-4,11-8.9c7.3-6.6,9.2-14,9.2-14h-12.2c0,0-0.7,2.3-4.1,5.5c-3.2,3-5.4,4.6-7,5.3c-1.5,0.7-6.1,1.9-7.9-0.7
						c-1.9-2.6-1-6.9-1-6.9s-3.3,3.9-3.9,8.5c-0.7,5.1,2,7.3-1.2,13c-1.5,2.8-5.1,9.3-6.3,13.7c-1.2,4.4-2,8.5-3.8,11.3
						c-3.1,4.9-6.4,3.3-7.4,3c-3.7-1.3-6.8-5-6.8-5s0.3,5.2,2.6,8.7c4,6.2,8.8,5.7,11,8.5s4.3,16.8,5.7,20.4
						C205.8,486.2,208.4,491.7,208.4,491.7z"/>
				</g>
				<g id="XMLID_369_">
					<path id="XMLID_372_" class="st6" d="M236.3,385.8c0,0-2.8,3.3-6.1,4.5c-4.3,1.6-11.6,1.7-11.6,1.7s5-2.2,7.2-6.6
						c0.9-1.8,1.3-5.2-0.3-7.5c-2.7-3.7-16.5-14.5-19.9-26.1c-2.6-8.9-2.5-11.3-3.3-19.5s1.3-10.3-3.6-12.7
						c-5.9-2.9-7.8-9.8-7.8-9.8s7,4.1,11.3,1.5s5.5-10.7,6.4-14.2c0.9-3.5,3-10.2,4-12.2c0.9-2-3-5.1-5.2-10.1c-1-2.4-1-7.9-0.5-9.7
						c0.5-1.8,0.5-1.8,0.5-1.8s3,8.3,6.3,8.9c3.2,0.6,5.8-0.1,6.5-1.3c0.8-1.2,6.4-15.1,7.8-19.8c2.2-7.4,3.9-17,4.7-21.8
						c1.4-8.2,1.9-13.6,1.9-13.6s3.5-3,5.3-4.7c1.8-1.8,5.1-6.3,5.1-6.3l-0.8,14.8c0,0,0.1,3.1,1.4,4c1.1,0.8,2.3,1.3,4.1,0.6
						c1.7-0.7,4.1-2.3,4.1-2.3s-1.2,6.7-6,9.8c-3.7,2.3-3.1,1.2-5.4,4.6c-2.3,3.3-5.2,15.8-6.9,20.2c-1.7,4.4-12.4,29.8-14.4,34.8
						s-8.9,19.5-9.1,30.3c-0.2,10.8,0.6,30.6,12.1,39.3s14.3,9.1,14.3,9.1s0.1,3.6-0.5,8.8C237.5,382.3,236.3,385.8,236.3,385.8z"/>
					<path id="XMLID_371_" class="st6" d="M234.4,397.3h12.2c0,0,1-2.3,1.9-7.4c1.1-6,2.4-12.9,1-24.4c-0.3-2-1.7-7.6,1.5-10.6
						c5.6-5.2,4.3-13.3,4.3-13.3s-3.2,5.4-6,6c-2.5,0.5-3.9-1.1-4.6-2.4c-0.7-1.3-4.6-17.1-8.8-24.4c-4.2-7.3-13.8-27.1-13.8-27.1
						l-4.9,12.6l7.9,16.1c0,0,2.5,3.9,0.5,5.7c-1.9,1.7-3.1,2.3-5.1,5.8c-2.1,3.6-2.1,6.6-2.1,6.6s5.8-5,10-3.9
						c2.6,0.7,4.7,3.2,5.5,5.6c0.6,1.8,4.8,16.1,6.1,24.5c0.6,3.9,0.4,11.7-1.2,18C237.1,391.8,234.4,397.3,234.4,397.3z"/>
					<path id="XMLID_370_" class="st6" d="M208.4,290.7l2.4-6.6c0,0-4.5-6.5-5.2-9.6c-0.8-3.6-0.6-6.8-0.3-9.2
						c0.3-2.4,1.5-4.6,2.2-6.1c0,0,1.2,2.4,1.7,3.6c0.8,2,2.5,4.1,2.5,4.1s-2.8-15.3-0.9-19.6c1.9-4.2,5.3-6.2,5.3-6.2
						s4.2-1.9,5.9-3.4c1.7-1.5,3.5-4.9,3.5-4.9s-4.6,1.9-6.7,1.1c-2-0.8-2-2.2-0.4-5.4c1.6-3.1,4.5-6.8,7.9-9.5
						c3.5-2.7,5.6-4,11-8.9c7.3-6.6,9.2-14,9.2-14h-12.2c0,0-0.7,2.3-4.1,5.5c-3.2,3-5.4,4.6-7,5.3c-1.5,0.7-6.1,1.9-7.9-0.7
						c-1.9-2.6-1-6.9-1-6.9s-3.3,3.9-3.9,8.5c-0.7,5.1,2,7.3-1.2,13c-1.5,2.8-5.1,9.3-6.3,13.7c-1.2,4.4-2,8.5-3.8,11.3
						c-3.1,4.9-6.4,3.3-7.4,3c-3.7-1.3-6.8-5-6.8-5s0.3,5.2,2.6,8.7c4,6.2,8.8,5.7,11,8.5c2.3,2.8,4.3,16.8,5.7,20.4
						C205.6,285,208.4,290.7,208.4,290.7z"/>
				</g>
				<g id="XMLID_365_">
					<path id="XMLID_368_" class="st6" d="M236.3,186c0,0-2.8,2.9-6.1,4.1c-4.3,1.5-11.6,1.5-11.6,1.5s5-1.9,7.2-5.9
						c0.9-1.6,1.3-4.7-0.3-6.7c-2.7-3.3-16.5-13-19.9-23.3c-1.3-4-1.9-6.5-2.4-9c-0.2-1.2-0.4-2.4-0.5-3.8c0-0.3-0.1-0.7-0.1-1
						c0-0.1,0-0.4-0.1-0.7c0-0.3,0-0.6-0.1-0.9c-0.1-1.2-0.2-2.4-0.3-3.8c-0.4-5.6-0.1-9-0.3-11.6s-0.9-4.3-3.4-7.1
						c-2.9-3.3-4.9-8.1-6.1-12.1s-1.7-7.2-1.7-7.2s1.8,2.9,4,5.4c2.3,2.5,5.1,4.7,7.2,4.2c2.1-0.4,3.5-2.9,4.5-5.6s1.5-5.7,1.9-7.3
						c0-0.1,0.1-0.2,0.1-0.4c2.6,0.5,6.2,1.2,9.4,2c3.2,0.7,6,1.5,7.4,2c1.4,0.5,2.2-0.3,3.4-1.4c1.2-1.1,2.7-2.7,5.3-3.7
						c2.5-1,9.4-1,11.7-0.5c2.3,0.5,2.3,0.5,2.3,0.5s-2.4,0.8-4.6,1.9c-2.2,1.2-4.1,2.7-3.8,4.4c0.6,3.2,2.3,5.8,3.6,6.5
						c0.6,0.4,4.5,2,8.1,3.7c0.9,0.4,1.7,0.8,2.6,1.3c0.4,0.2,0.8,0.4,1.2,0.6c0.4,0.2,0.9,0.4,1.3,0.6c1.8,0.7,3.4,1.4,4.4,1.7
						c6.7,2.2,15.2,3.9,19.5,4.7c7.3,1.4,12.1,1.9,12.1,1.9s2.6,3.5,4.2,5.3c1.6,1.8,5.6,5.1,5.6,5.1l-13.3-0.8c0,0-2.8,0.1-3.6,1.4
						c-0.7,1.1-1.2,2.3-0.6,4.1c0.6,1.7,2.1,4.1,2.1,4.1s-6-1.2-8.7-6c-2-3.7-1.1-3.1-4.1-5.4c-3-2.3-14.1-5.2-18.1-6.9
						c-0.2-0.1-0.6-0.2-0.9-0.4s-0.5-0.4-0.8-0.6c-0.6-0.5-1.4-1-2.4-1.7c-1.9-1.3-4.6-2.8-7.8-4.4c-3.2-1.6-6.9-3.2-10.3-4.5
						c-3.4-1.3-6.4-2.4-7.9-2.9c-1.6-0.5-4.1-1.4-7.4-2.4c-1.4,1.7-3,4.3-4.4,7.9c-1.3,3.5-2.3,8-2.4,12.4c0,3,0,6.6,0.2,10.5
						c0.1,1.9,0.3,4,0.5,5.9c0.2,1.6,0.5,3.3,0.9,5c1.6,6.6,4.7,13,10.4,16.8c11.5,7.7,14.3,8.1,14.3,8.1s0.1,3.3-0.5,7.8
						C237.5,182.8,236.3,186,236.3,186z"/>
					<path id="XMLID_367_" class="st6" d="M234.4,196.3h12.2c0,0,1-2.1,1.9-6.7c1.1-5.4,2.4-11.6,1-21.9c-0.3-1.8-1.7-6.8,1.5-9.5
						c5.6-4.7,4.3-11.9,4.3-11.9s-3.2,4.9-6,5.4c-2.5,0.5-3.9-1-4.6-2.2c-0.2-0.3-0.5-1.4-1.1-3c-0.3-0.8-0.6-1.7-0.9-2.7
						c-0.2-0.5-0.3-1-0.5-1.6c-0.1-0.3-0.2-0.5-0.3-0.8c-0.1-0.2-0.2-0.2-0.3-0.3c-1.6-1.8-3.6-4.6-5.7-7.3c-1.6-2-4-5.6-6.3-10.2
						c-2.3-4.6-4.6-10.1-6-13.9c0.7-0.9,1.2-1.5,1.2-1.5l-3.9-1.2c-1.2,1.5-2.5,3.3-3.7,5.4c0,0,0.5,1.3,1.2,3.3
						c0.7,1.9,1.7,4.4,2.7,6.7c1,2.3,2,4.4,2.7,5.9s1.2,2.4,1.2,2.4s0.6,1,1,2c0.4,1,0.5,2.1-0.5,2.5c-0.9,0.4-1.7,0.8-2.5,1.3
						c-0.8,0.5-1.6,1.3-2.6,2.7c-1,1.5-1.6,3.1-1.8,4.1c-0.3,1.1-0.3,1.8-0.3,1.8s5.8-4.5,10-3.5c2.6,0.6,4.7,2.9,5.5,5
						c0.6,1.6,4.8,14.4,6.1,21.9c0.6,3.5,0.4,10.5-1.2,16.1C237.1,191.4,234.4,196.3,234.4,196.3z"/>
					<path id="XMLID_366_" class="st6" d="M215.7,94.5c0,0,2.4,0.6,4.9,1.2c2.3,0.6,4.7,1.2,4.7,1.2s1-1.1,2.7-2.4
						c1.7-1.2,4.1-2.5,5.9-2.9c4.2-0.8,8.5-0.6,11.6-0.3c3.1,0.3,6,1.5,7.8,2.2c0,0-0.7,0.3-1.6,0.7c-0.9,0.4-1.9,0.8-2.6,1
						c-1.1,0.4-2.2,1-3,1.5c-0.8,0.5-1.3,0.9-1.3,0.9s4.1-0.7,9.1-1.2c1.1-0.1,2.2-0.2,3.3-0.3c1-0.1,2-0.1,2.9-0.1
						c1.8,0,3.4,0.2,4.3,0.6c3.8,1.9,5.5,5.3,5.5,5.3s1.7,4.2,3,5.9s4.4,3.5,4.4,3.5s-1.7-4.6-1-6.7c0.7-2.1,2-2,4.8-0.4
						c2.8,1.6,6.1,4.5,8.5,7.9c2.4,3.5,3.6,5.6,8,11c5.9,7.3,12.5,9.2,12.5,9.2v-11.9c0,0-2.1-0.7-4.9-4.1c-2.7-3.2-4.1-5.4-4.7-7
						c-0.6-1.5-1.7-6.1,0.6-7.9c2.3-1.9,6.2-1,6.2-1s-3.5-3.3-7.6-3.9c-4.5-0.7-6.6,2-11.6-1.2c-2.5-1.5-8.3-5.1-12.3-6.3
						c-3.9-1.2-7.6-2-10.1-3.8c-4.4-3.1-3-6.4-2.7-7.4c1.1-3.7,4.5-6.8,4.5-6.8s-4.6,0.3-7.8,2.6c-1.4,1-2.4,2-3.2,3.1
						c-0.4,0.5-0.7,1-1,1.6c0,0.1-0.2,0.3-0.3,0.4l-0.3,0.4c-0.2,0.3-0.4,0.5-0.6,0.7c-1.5,2-2.3,3.7-4.2,4.9
						c-1.9,1.1-7.7,2.2-13.2,3.2s-10.9,1.8-12.8,2.5c-1.9,0.7-4.1,1.7-5.7,2.5C216.8,93.9,215.7,94.5,215.7,94.5z"/>
				</g>
				<g id="XMLID_361_">
					<path id="XMLID_364_" class="st6" d="M320.5,122.4c0,0-3-2.8-4.1-6.1c-1.5-4.3-1.5-11.6-1.5-11.6s2,5,6,7.2
						c1.6,0.9,4.7,1.3,6.8-0.3c3.3-2.7,13.1-16.5,23.6-19.9c8.1-2.6,10.2-2.5,17.6-3.3c7.4-0.8,9.3,1.3,11.5-3.6
						c2.6-5.9,8.8-7.8,8.8-7.8s-3.7,7-1.4,11.3c2.4,4.3,9.7,5.5,12.8,6.4c3.2,0.9,9.2,3,11,4c1.8,0.9,4.6-3,9.1-5.2
						c2.2-1,7.1-1,8.8-0.5s1.6,0.5,1.6,0.5s-7.5,3-8,6.3c-0.5,3.2,0.1,5.8,1.2,6.5c1.1,0.7,13.6,6.4,17.9,7.8
						c6.7,2.2,15.4,3.9,19.8,4.7c7.4,1.4,12.3,1.9,12.3,1.9s2.7,3.5,4.3,5.3c1.6,1.8,5.7,5.1,5.7,5.1l-13.3-0.6c0,0-2.8,0.1-3.6,1.4
						c-0.7,1.1-1.2,2.3-0.6,4.1c0.6,1.7,2.1,4.1,2.1,4.1s-6.1-1.2-8.8-6c-2.1-3.7-1.1-3.1-4.1-5.4c-3-2.3-14.3-5.2-18.3-6.9
						s-27-12.4-31.5-14.4s-17.6-8.9-27.4-9.1c-9.8-0.2-27.7,0.6-35.5,12.1c-7.8,11.5-8.2,14.3-8.2,14.3s-3.3,0.1-7.9-0.5
						C323.7,123.7,320.5,122.4,320.5,122.4z"/>
					<path id="XMLID_363_" class="st6" d="M310.1,120.5v12.2c0,0,2.1,1,6.7,1.9c5.4,1.1,11.7,2.4,22.1,1c1.8-0.3,6.9-1.7,9.6,1.5
						c4.7,5.6,12,4.3,12,4.3s-4.9-3.2-5.5-6c-0.5-2.5,1-3.9,2.2-4.6c1.2-0.7,15.4-4.6,22.1-8.8c6.6-4.2,24.5-13.8,24.5-13.8
						l-11.4-4.9l-14.4,8c0,0-3.6,2.5-5.1,0.5c-1.5-1.9-2.1-3.1-5.2-5.1c-3.2-2.1-6-2.1-6-2.1s4.5,5.8,3.6,10
						c-0.6,2.6-2.9,4.7-5.1,5.5c-1.6,0.6-14.6,4.8-22.2,6.1c-3.5,0.6-10.6,0.4-16.3-1.2C315.1,123.2,310.1,120.5,310.1,120.5z"/>
					<path id="XMLID_362_" class="st6" d="M406.6,94.5l6,2.4c0,0,5.9-4.5,8.7-5.2c3.2-0.8,6.1-0.6,8.3-0.3c2.2,0.3,4.1,1.5,5.5,2.2
						c0,0-2.2,1.2-3.3,1.7c-1.8,0.8-3.7,2.5-3.7,2.5s13.9-2.8,17.7-0.9c3.8,1.9,5.6,5.3,5.6,5.3s1.7,4.2,3,5.9
						c1.3,1.7,4.5,3.5,4.5,3.5s-1.7-4.6-1-6.7s2-2,4.9-0.4c2.8,1.6,6.2,4.5,8.6,7.9c2.4,3.5,3.6,5.6,8.1,11
						c5.9,7.3,12.6,9.2,12.6,9.2v-12.2c0,0-2.1-0.7-5-4.1c-2.7-3.2-4.1-5.4-4.8-7c-0.6-1.5-1.8-6.1,0.6-7.9c2.4-1.9,6.2-1,6.2-1
						s-3.5-3.3-7.7-3.9c-4.6-0.7-6.6,2-11.8-1.2c-2.5-1.5-8.4-5.1-12.4-6.3c-4-1.2-7.7-2-10.2-3.8c-4.4-3.1-3-6.4-2.7-7.4
						c1.2-3.7,4.5-6.8,4.5-6.8s-4.7,0.3-7.9,2.6c-5.6,4-5.2,8.8-7.7,11c-2.5,2.3-15.2,4.3-18.5,5.7
						C411.4,91.7,406.6,94.5,406.6,94.5z"/>
				</g>
				<g id="XMLID_357_">
					<path id="XMLID_360_" class="st6" d="M502.4,122.4c0,0-3-2.8-4.1-6.1c-1.5-4.3-1.5-11.6-1.5-11.6s2,5,6,7.2
						c1.6,0.9,4.7,1.3,6.8-0.3c3.3-2.7,13.1-16.5,23.6-19.9c8.1-2.6,10.2-2.5,17.6-3.3c7.4-0.8,9.3,1.3,11.5-3.6
						c2.6-5.9,8.8-7.8,8.8-7.8s-3.7,7-1.4,11.3c2.3,4.3,9.7,5.5,12.8,6.4c3.2,0.9,9.2,3,11,4c1.8,0.9,4.6-3,9.1-5.2
						c2.2-1,7.1-1,8.8-0.5c1.6,0.5,1.6,0.5,1.6,0.5s-7.5,3-8,6.3c-0.5,3.2,0.1,5.8,1.2,6.5c1,0.8,13.6,6.4,17.9,7.8
						c6.7,2.2,15.4,3.9,19.8,4.7c7.4,1.4,12.3,1.9,12.3,1.9s2.7,3.5,4.3,5.3c1.6,1.8,5.7,5.1,5.7,5.1l-13.4-0.8c0,0-2.8,0.1-3.6,1.4
						c-0.7,1.1-1.2,2.3-0.6,4.1c0.6,1.7,2.1,4.1,2.1,4.1s-6.1-1.2-8.8-6c-2.1-3.7-1.1-3.1-4.1-5.4c-3-2.3-14.3-5.2-18.3-6.9
						s-27-12.4-31.5-14.4s-17.6-8.9-27.4-9.1c-9.8-0.2-27.7,0.6-35.5,12.1s-8.1,14.4-8.1,14.4s-3.3,0.1-7.9-0.5
						C505.6,123.7,502.4,122.4,502.4,122.4z"/>
					<path id="XMLID_359_" class="st6" d="M492,120.5v12.2c0,0,2.1,1,6.7,1.9c5.4,1.1,11.7,2.4,22.1,1c1.8-0.3,6.9-1.7,9.6,1.5
						c4.7,5.6,12,4.3,12,4.3s-4.9-3.2-5.5-6c-0.5-2.5,1-3.9,2.2-4.6c1.2-0.7,15.4-4.6,22.1-8.8c6.6-4.2,24.5-13.8,24.5-13.8
						l-11.4-4.9l-14.5,7.9c0,0-3.6,2.5-5.1,0.5c-1.5-1.9-2.1-3.1-5.2-5.1c-3.2-2.1-6-2.1-6-2.1s4.5,5.8,3.6,10
						c-0.6,2.6-2.9,4.7-5.1,5.5c-1.6,0.6-14.6,4.8-22.2,6.1c-3.5,0.6-10.6,0.4-16.3-1.2C496.9,123.2,492,120.5,492,120.5z"/>
					<path id="XMLID_358_" class="st6" d="M588.5,94.5l6,2.4c0,0,5.9-4.5,8.7-5.2c3.2-0.8,6.1-0.6,8.3-0.3c2.2,0.3,4.1,1.5,5.5,2.2
						c0,0-2.2,1.2-3.3,1.7c-1.8,0.8-3.7,2.5-3.7,2.5s13.9-2.8,17.7-0.9c3.8,1.9,5.6,5.3,5.6,5.3s1.7,4.2,3,5.9
						c1.3,1.7,4.5,3.5,4.5,3.5s-1.7-4.6-1-6.7c0.7-2,2-2,4.9-0.4c2.8,1.6,6.2,4.5,8.6,7.9c2.4,3.5,3.6,5.6,8.1,11
						c5.9,7.3,12.6,9.2,12.6,9.2v-12.2c0,0-2.1-0.7-5-4.1c-2.7-3.2-4.1-5.4-4.8-7c-0.6-1.5-1.8-6.1,0.6-7.9c2.4-1.8,6.2-1,6.2-1
						s-3.5-3.3-7.7-3.9c-4.6-0.7-6.6,2-11.8-1.2c-2.5-1.5-8.4-5.1-12.4-6.3c-4-1.2-7.7-2-10.2-3.8c-4.4-3.1-3-6.4-2.7-7.4
						c1.2-3.7,4.5-6.8,4.5-6.8s-4.7,0.3-7.9,2.6c-5.6,4-5.2,8.8-7.7,11c-2.5,2.3-15.2,4.3-18.5,5.7
						C593.4,91.9,588.5,94.5,588.5,94.5z"/>
				</g>
				<g id="XMLID_353_">
					<path id="XMLID_356_" class="st6" d="M684.3,122.4c0,0-3-2.8-4.1-6.1c-1.5-4.3-1.5-11.6-1.5-11.6s2,5,6,7.2
						c1.6,0.9,4.7,1.3,6.8-0.3c3.3-2.7,13.1-16.5,23.6-19.9c8.1-2.6,10.2-2.5,17.6-3.3c7.4-0.8,9.3,1.3,11.5-3.6
						c2.6-5.9,8.8-7.8,8.8-7.8s-3.7,7-1.4,11.3c2.3,4.3,9.7,5.5,12.8,6.4c3.2,0.9,9.2,3,11,4c1.8,0.9,4.6-3,9.1-5.2
						c2.2-1,7.1-1,8.8-0.5c1.6,0.5,1.6,0.5,1.6,0.5s-7.5,3-8,6.3c-0.5,3.2,0.1,5.8,1.2,6.5c1,0.8,13.6,6.4,17.9,7.8
						c6.7,2.2,15.4,3.9,19.8,4.7c7.4,1.4,12.3,1.9,12.3,1.9s2.7,3.5,4.3,5.3s5.7,5.1,5.7,5.1l-13.4-0.8c0,0-2.8,0.1-3.6,1.4
						c-0.7,1.1-1.2,2.3-0.6,4.1c0.6,1.7,2.1,4.1,2.1,4.1s-6.1-1.2-8.8-6c-2.1-3.7-1.1-3.1-4.1-5.4c-3-2.3-14.3-5.2-18.3-6.9
						s-27-12.4-31.5-14.4s-17.6-8.9-27.4-9.1c-9.8-0.2-27.7,0.6-35.5,12.1s-8.2,14.3-8.2,14.3s-3.3,0.1-7.9-0.5
						C687.5,123.7,684.3,122.4,684.3,122.4z"/>
					<path id="XMLID_355_" class="st6" d="M673.9,120.5v12.2c0,0,2.1,1,6.7,1.9c5.4,1.1,11.7,2.4,22.1,1c1.8-0.3,6.9-1.7,9.6,1.5
						c4.7,5.6,12,4.3,12,4.3s-4.9-3.2-5.5-6c-0.5-2.5,1-3.9,2.2-4.6c1.2-0.7,15.4-4.6,22.1-8.8c6.6-4.2,24.5-13.8,24.5-13.8
						l-11.4-4.9l-14.5,7.9c0,0-3.6,2.5-5.1,0.5c-1.5-1.9-2.1-3.1-5.2-5.1c-3.2-2.1-6-2.1-6-2.1s4.5,5.8,3.6,10
						c-0.6,2.6-2.9,4.7-5.1,5.5c-1.6,0.6-14.6,4.8-22.2,6.1c-3.5,0.6-10.6,0.4-16.3-1.2C678.8,123.2,673.9,120.5,673.9,120.5z"/>
					<path id="XMLID_354_" class="st6" d="M770.3,94.5l6,2.4c0,0,5.9-4.5,8.7-5.2c3.2-0.8,6.1-0.6,8.3-0.3c2.2,0.3,4.1,1.5,5.5,2.2
						c0,0-2.2,1.2-3.3,1.7c-1.8,0.8-3.7,2.5-3.7,2.5s13.9-2.8,17.7-0.9c3.8,1.9,5.6,5.3,5.6,5.3s1.7,4.2,3,5.9
						c1.3,1.7,4.5,3.5,4.5,3.5s-1.7-4.6-1-6.7c0.7-2,2-2,4.9-0.4c2.8,1.6,6.2,4.5,8.6,7.9c2.4,3.5,3.6,5.6,8.1,11
						c5.9,7.3,12.6,9.2,12.6,9.2v-12.2c0,0-2.1-0.7-5-4.1c-2.7-3.2-4.1-5.4-4.8-7c-0.6-1.5-1.8-6.1,0.6-7.9c2.4-1.9,6.2-1,6.2-1
						s-3.5-3.3-7.7-3.9c-4.6-0.7-6.6,2-11.8-1.2c-2.5-1.5-8.4-5.1-12.4-6.3c-4-1.2-7.7-2-10.2-3.8c-4.4-3.1-3-6.4-2.7-7.4
						c1.2-3.7,4.5-6.8,4.5-6.8s-4.7,0.3-7.9,2.6c-5.6,4-5.2,8.8-7.7,11c-2.5,2.3-15.2,4.3-18.5,5.7
						C775.3,91.9,770.3,94.5,770.3,94.5z"/>
				</g>
				<g id="XMLID_349_">
					<path id="XMLID_352_" class="st6" d="M866.1,122.4c0,0-3-2.8-4.1-6.1c-1.5-4.3-1.5-11.6-1.5-11.6s2,5,6,7.2
						c1.6,0.9,4.7,1.3,6.8-0.3c3.3-2.7,13.1-16.5,23.6-19.9c8.1-2.6,10.2-2.5,17.6-3.3c7.4-0.8,9.3,1.3,11.5-3.6
						c2.6-5.9,8.8-7.8,8.8-7.8s-3.7,7-1.4,11.3c2.3,4.3,9.7,5.5,12.8,6.4c3.2,0.9,9.2,3,11,4c1.8,0.9,4.6-3,9.1-5.2
						c2.2-1,7.1-1,8.8-0.5c1.6,0.5,1.6,0.5,1.6,0.5s-7.5,3-8,6.3c-0.5,3.2,0.1,5.8,1.2,6.5c1.1,0.7,13.6,6.4,17.9,7.8
						c6.7,2.2,15.4,3.9,19.8,4.7c7.4,1.4,12.3,1.9,12.3,1.9s2.7,3.5,4.3,5.3s5.7,5.1,5.7,5.1l-13.4-0.8c0,0-2.8,0.1-3.6,1.4
						c-0.7,1.1-1.2,2.3-0.6,4.1c0.6,1.7,2.1,4.1,2.1,4.1s-6.1-1.2-8.8-6c-2.1-3.7-1.1-3.1-4.1-5.4c-3-2.3-14.3-5.2-18.3-6.9
						s-27-12.4-31.5-14.4s-17.6-8.9-27.4-9.1c-9.8-0.2-27.7,0.6-35.5,12.1s-8.2,14.3-8.2,14.3s-3.3,0.1-7.9-0.5
						C869.3,123.7,866.1,122.4,866.1,122.4z"/>
					<path id="XMLID_351_" class="st6" d="M855.7,120.5v12.2c0,0,2.1,1,6.7,1.9c5.4,1.1,11.7,2.4,22.1,1c1.8-0.3,6.9-1.7,9.6,1.5
						c4.7,5.6,12,4.3,12,4.3s-4.9-3.2-5.5-6c-0.5-2.5,1-3.9,2.2-4.6c1.2-0.7,15.4-4.6,22.1-8.8c6.6-4.2,24.5-13.8,24.5-13.8
						l-11.4-4.9l-14.5,7.9c0,0-3.6,2.5-5.1,0.5c-1.5-1.9-2.1-3.1-5.2-5.1c-3.2-2.1-6-2.1-6-2.1s4.5,5.8,3.6,10
						c-0.6,2.6-2.9,4.7-5.1,5.5c-1.6,0.6-14.6,4.8-22.2,6.1c-3.5,0.6-10.6,0.4-16.3-1.2C860.7,123.2,855.7,120.5,855.7,120.5z"/>
					<path id="XMLID_350_" class="st6" d="M952.2,94.5l6,2.4c0,0,5.9-4.5,8.7-5.2c3.2-0.8,6.1-0.6,8.3-0.3c2.2,0.3,4.1,1.5,5.5,2.2
						c0,0-2.2,1.2-3.3,1.7c-1.8,0.8-3.7,2.5-3.7,2.5s13.9-2.8,17.7-0.9c3.8,1.9,5.6,5.3,5.6,5.3s1.7,4.2,3,5.9
						c1.3,1.7,4.5,3.5,4.5,3.5s-1.7-4.6-1-6.7c0.7-2,2-2,4.9-0.4c2.8,1.6,6.2,4.5,8.6,7.9c2.4,3.5,3.6,5.6,8.1,11
						c5.9,7.3,12.6,9.2,12.6,9.2v-12.2c0,0-2.1-0.7-5-4.1c-2.7-3.2-4.1-5.4-4.8-7c-0.6-1.5-1.8-6.1,0.6-7.9c2.4-1.8,6.2-1,6.2-1
						s-3.5-3.3-7.7-3.9c-4.6-0.7-6.6,2-11.8-1.2c-2.5-1.5-8.4-5.1-12.4-6.3c-4-1.2-7.7-2-10.2-3.8c-4.4-3.1-3-6.4-2.7-7.4
						c1.2-3.7,4.5-6.8,4.5-6.8s-4.7,0.3-7.9,2.6c-5.6,4-5.2,8.8-7.7,11c-2.5,2.3-15.2,4.3-18.5,5.7
						C957.2,91.9,952.2,94.5,952.2,94.5z"/>
				</g>
				<g id="XMLID_345_">
					<path id="XMLID_348_" class="st6" d="M1047.9,122.4c0,0-2.9-2.8-4.1-6.1c-1.5-4.3-1.5-11.6-1.5-11.6s1.9,5,5.9,7.2
						c1.6,0.9,4.7,1.3,6.7-0.3c3.3-2.7,13-16.5,23.3-19.9c4-1.3,6.5-1.9,9-2.4c1.2-0.2,2.4-0.4,3.8-0.5c0.3,0,0.7-0.1,1-0.1
						c0.1,0,0.4,0,0.7-0.1c0.3,0,0.6,0,0.9-0.1c1.2-0.1,2.4-0.2,3.8-0.3c5.6-0.4,9-0.1,11.6-0.3c2.6-0.2,4.3-0.9,7.1-3.4
						c3.3-2.9,8.1-4.9,12.1-6.1c4-1.2,7.2-1.7,7.2-1.7s-2.9,1.8-5.4,4c-2.5,2.3-4.7,5.1-4.2,7.2c0.4,2.1,2.9,3.5,5.6,4.5
						c2.7,1,5.7,1.5,7.3,1.9c0.1,0,0.2,0.1,0.4,0.1c-0.5,2.6-1.2,6.2-2,9.4c-0.7,3.2-1.5,6-2,7.4c-0.5,1.4,0.3,2.2,1.4,3.4
						c1.1,1.2,2.7,2.7,3.7,5.3c1,2.5,1,9.4,0.5,11.7s-0.5,2.3-0.5,2.3s-0.8-2.4-1.9-4.6c-1.2-2.2-2.7-4.1-4.4-3.8
						c-3.2,0.6-5.8,2.3-6.5,3.6c-0.4,0.6-2,4.5-3.7,8.1c-0.4,0.9-0.8,1.7-1.3,2.6c-0.2,0.4-0.4,0.8-0.6,1.2
						c-0.2,0.4-0.4,0.9-0.6,1.3c-0.7,1.8-1.4,3.4-1.7,4.4c-2.2,6.7-3.9,15.2-4.7,19.5c-1.4,7.3-1.9,12.1-1.9,12.1s-3.5,2.6-5.3,4.2
						c-1.8,1.6-5.1,5.6-5.1,5.6l0.8-13.3c0,0-0.1-2.8-1.4-3.6c-1.1-0.7-2.3-1.2-4.1-0.6c-1.8,0.6-4.1,2.1-4.1,2.1s1.2-6,6-8.7
						c3.7-2,3.1-1.1,5.4-4.1c2.3-3,5.2-14.1,6.9-18.1c0.1-0.2,0.2-0.6,0.4-0.9c0.2-0.3,0.4-0.5,0.6-0.8c0.5-0.6,1-1.4,1.7-2.4
						c1.3-1.9,2.8-4.6,4.4-7.8c1.6-3.2,3.2-6.9,4.5-10.3c1.3-3.4,2.4-6.4,2.9-7.9c0.5-1.6,1.4-4.1,2.4-7.4c-1.7-1.4-4.3-3-7.9-4.4
						c-3.5-1.3-8-2.3-12.4-2.4c-3,0-6.6,0-10.5,0.2c-1.9,0.1-4,0.3-5.9,0.5c-1.6,0.2-3.3,0.5-5,0.9c-6.6,1.6-13,4.7-16.8,10.4
						c-7.7,11.5-8.1,14.3-8.1,14.3s-3.3,0.1-7.8-0.5C1051,123.7,1047.9,122.4,1047.9,122.4z"/>
					<path id="XMLID_347_" class="st6" d="M1037.6,120.5v12.2c0,0,2.1,1,6.7,1.9c5.4,1.1,11.6,2.4,21.9,1c1.8-0.3,6.8-1.7,9.5,1.5
						c4.7,5.6,11.9,4.3,11.9,4.3s-4.9-3.2-5.4-6c-0.5-2.5,1-3.9,2.2-4.6c0.3-0.2,1.4-0.5,3-1.1c0.8-0.3,1.7-0.6,2.7-0.9
						c0.5-0.2,1-0.3,1.6-0.5c0.3-0.1,0.5-0.2,0.8-0.3c0.2-0.1,0.2-0.2,0.3-0.3c1.8-1.6,4.6-3.6,7.3-5.7c2-1.6,5.6-4,10.2-6.3
						c4.6-2.3,10.1-4.6,13.9-6c0.9,0.7,1.5,1.2,1.5,1.2l1.2-3.9c-1.5-1.2-3.3-2.5-5.4-3.7c0,0-1.3,0.5-3.3,1.2
						c-1.9,0.7-4.4,1.7-6.7,2.7s-4.4,2-5.9,2.7c-1.5,0.7-2.4,1.2-2.4,1.2s-1,0.6-2,1s-2.1,0.5-2.5-0.5c-0.4-0.9-0.8-1.7-1.3-2.5
						s-1.3-1.6-2.7-2.6c-1.5-1-3.1-1.6-4.1-1.8c-1.1-0.3-1.8-0.3-1.8-0.3s4.5,5.8,3.5,10c-0.6,2.6-2.9,4.7-5,5.5
						c-1.6,0.6-14.4,4.8-21.9,6.1c-3.5,0.6-10.5,0.4-16.1-1.2C1042.5,123.2,1037.6,120.5,1037.6,120.5z"/>
					<path id="XMLID_346_" class="st6" d="M1139.3,101.8c0,0-0.6,2.4-1.2,4.9c-0.6,2.3-1.2,4.7-1.2,4.7s1.1,1,2.4,2.7
						c1.2,1.7,2.5,4.1,2.9,5.9c0.8,4.2,0.6,8.5,0.3,11.6s-1.5,6-2.2,7.8c0,0-0.3-0.7-0.7-1.6c-0.4-0.9-0.8-1.9-1-2.6
						c-0.4-1.1-1-2.2-1.5-3s-0.9-1.3-0.9-1.3s0.7,4.1,1.2,9.1c0.1,1.1,0.2,2.2,0.3,3.3c0.1,1,0.1,2,0.1,2.9c0,1.8-0.2,3.4-0.6,4.3
						c-1.9,3.8-5.3,5.5-5.3,5.5s-4.2,1.7-5.9,3c-1.7,1.3-3.5,4.4-3.5,4.4s4.6-1.7,6.7-1c2,0.7,2,2,0.4,4.8s-4.5,6.1-7.9,8.5
						c-3.5,2.4-5.6,3.6-11,8c-7.3,5.9-9.2,12.5-9.2,12.5h12.3c0,0,0.7-2.1,4.1-4.9c3.2-2.7,5.4-4.1,7-4.7c1.5-0.6,6.1-1.7,7.9,0.6
						s1,6.2,1,6.2s3.3-3.5,3.9-7.6c0.7-4.5-2-6.6,1.2-11.6c1.5-2.5,5.1-8.3,6.3-12.3c1.2-3.9,2-7.6,3.8-10.1c3.1-4.4,6.4-3,7.4-2.7
						c3.7,1.1,6.8,4.5,6.8,4.5s-0.3-4.6-2.6-7.8c-1-1.4-2-2.4-3.1-3.2c-0.5-0.4-1-0.7-1.6-1c-0.1,0-0.3-0.2-0.4-0.3l-0.4-0.3
						c-0.3-0.2-0.5-0.4-0.7-0.6c-2-1.5-3.7-2.3-4.9-4.2c-1.1-1.9-2.2-7.7-3.2-13.2s-1.8-10.9-2.5-12.8s-1.7-4.1-2.5-5.7
						C1140,102.9,1139.3,101.8,1139.3,101.8z"/>
				</g>
				<g id="XMLID_341_">
					<path id="XMLID_344_" class="st6" d="M1111.4,207.7c0,0,2.8-3.3,6.1-4.5c4.3-1.6,11.6-1.7,11.6-1.7s-5,2.2-7.2,6.6
						c-0.9,1.8-1.3,5.2,0.3,7.5c2.7,3.7,16.5,14.5,19.9,26.1c2.6,8.9,2.5,11.3,3.3,19.5c0.8,8.2-1.3,10.3,3.6,12.7
						c5.9,2.9,7.8,9.8,7.8,9.8s-7-4.1-11.3-1.5c-4.3,2.6-5.5,10.7-6.4,14.2c-0.9,3.5-3,10.2-4,12.2c-0.9,2,3,5.1,5.2,10.1
						c1,2.4,1,7.9,0.5,9.7s-0.5,1.8-0.5,1.8s-3-8.3-6.3-8.9c-3.2-0.6-5.8,0.1-6.5,1.3c-0.8,1.2-6.4,15.1-7.8,19.8
						c-2.2,7.4-3.9,17-4.7,21.8c-1.4,8.2-1.9,13.6-1.9,13.6s-3.5,3-5.3,4.7c-1.8,1.8-5.1,6.3-5.1,6.3l0.8-14.8c0,0-0.1-3.1-1.4-4
						c-1.1-0.8-2.3-1.3-4.1-0.6c-1.7,0.7-4.1,2.3-4.1,2.3s1.2-6.7,6-9.8c3.7-2.3,3.1-1.2,5.4-4.6c2.3-3.3,5.2-15.8,6.9-20.2
						c1.7-4.4,12.4-29.8,14.4-34.8s8.9-19.5,9.1-30.3s-0.6-30.6-12.1-39.3c-11.5-8.6-14.3-9.1-14.3-9.1s-0.1-3.6,0.5-8.8
						C1110.2,211.3,1111.4,207.7,1111.4,207.7z"/>
					<path id="XMLID_343_" class="st6" d="M1113.4,196.3h-12.2c0,0-1,2.3-1.9,7.4c-1.1,6-2.4,12.9-1,24.4c0.3,2,1.7,7.6-1.5,10.6
						c-5.6,5.2-4.3,13.3-4.3,13.3s3.2-5.4,6-6c2.5-0.5,3.9,1.1,4.6,2.4s4.6,17.1,8.8,24.4c4.2,7.3,13.8,27.1,13.8,27.1l4.9-12.6
						l-7.9-16.1c0,0-2.5-3.9-0.5-5.7c1.9-1.7,3.1-2.3,5.1-5.8c2.1-3.6,2.1-6.6,2.1-6.6s-5.8,5-10,3.9c-2.6-0.7-4.7-3.2-5.5-5.6
						c-0.6-1.8-4.8-16.1-6.1-24.5c-0.6-3.9-0.4-11.7,1.2-18C1110.7,201.7,1113.4,196.3,1113.4,196.3z"/>
					<path id="XMLID_342_" class="st6" d="M1139.3,302.9l-2.4,6.6c0,0,4.5,6.5,5.2,9.6c0.8,3.6,0.6,6.8,0.3,9.2
						c-0.3,2.4-1.5,4.6-2.2,6.1c0,0-1.2-2.4-1.7-3.6c-0.8-2-2.5-4.1-2.5-4.1s2.8,15.3,0.9,19.6c-1.9,4.2-5.3,6.2-5.3,6.2
						s-4.2,1.9-5.9,3.4s-3.5,4.9-3.5,4.9s4.6-1.9,6.7-1.1c2.1,0.8,2,2.2,0.4,5.4c-1.6,3.1-4.5,6.8-7.9,9.5c-3.5,2.7-5.6,4-11,8.9
						c-7.3,6.6-9.2,14-9.2,14h12.3c0,0,0.7-2.3,4.1-5.5c3.2-3,5.4-4.6,7-5.3c1.5-0.7,6.1-1.9,7.9,0.7s1,6.9,1,6.9s3.3-3.9,3.9-8.5
						c0.7-5.1-2-7.3,1.2-13c1.5-2.8,5.1-9.3,6.3-13.7c1.2-4.4,2-8.5,3.8-11.3c3.1-4.9,6.4-3.3,7.4-3c3.7,1.3,6.8,5,6.8,5
						s-0.3-5.2-2.6-8.7c-4-6.2-8.8-5.7-11-8.5c-2.3-2.8-4.3-16.8-5.7-20.4C1142,308.4,1139.3,302.9,1139.3,302.9z"/>
				</g>
				<g id="XMLID_337_">
					<path id="XMLID_340_" class="st6" d="M1111.4,408.8c0,0,2.8-3.3,6.1-4.5c4.3-1.6,11.6-1.7,11.6-1.7s-5,2.2-7.2,6.6
						c-0.9,1.8-1.3,5.2,0.3,7.5c2.7,3.7,16.5,14.5,19.9,26.1c2.6,8.9,2.5,11.3,3.3,19.5c0.8,8.2-1.3,10.3,3.6,12.7
						c5.9,2.9,7.8,9.8,7.8,9.8s-7-4.1-11.3-1.5c-4.3,2.6-5.5,10.7-6.4,14.2c-0.9,3.5-3,10.2-4,12.2c-0.9,2,3,5.1,5.2,10.1
						c1,2.4,1,7.9,0.5,9.7c-0.5,1.8-0.5,1.8-0.5,1.8s-3-8.3-6.3-8.9c-3.2-0.6-5.8,0.1-6.5,1.3c-0.8,1.2-6.4,15.1-7.8,19.8
						c-2.2,7.4-3.9,17-4.7,21.8c-1.4,8.2-1.9,13.6-1.9,13.6s-3.5,3-5.3,4.7c-1.8,1.8-5.1,6.3-5.1,6.3l0.8-14.8c0,0-0.1-3.1-1.4-4
						c-1.1-0.8-2.3-1.3-4.1-0.6c-1.8,0.7-4.1,2.3-4.1,2.3s1.2-6.7,6-9.8c3.7-2.3,3.1-1.2,5.4-4.6c2.3-3.3,5.2-15.8,6.9-20.2
						c1.7-4.4,12.4-29.8,14.4-34.8s8.9-19.5,9.1-30.3s-0.6-30.6-12.1-39.3c-11.5-8.6-14.3-9.1-14.3-9.1s-0.1-3.6,0.5-8.8
						C1110.2,412.3,1111.4,408.8,1111.4,408.8z"/>
					<path id="XMLID_339_" class="st6" d="M1113.4,397.3h-12.2c0,0-1,2.3-1.9,7.4c-1.1,6-2.4,12.9-1,24.4c0.3,2,1.7,7.6-1.5,10.6
						c-5.6,5.2-4.3,13.3-4.3,13.3s3.2-5.4,6-6c2.5-0.5,3.9,1.1,4.6,2.4s4.6,17.1,8.8,24.4c4.2,7.3,13.8,27.1,13.8,27.1l4.9-12.6
						l-7.9-16.1c0,0-2.5-3.9-0.5-5.7c1.9-1.7,3.1-2.3,5.1-5.8c2.1-3.6,2.1-6.6,2.1-6.6s-5.8,5-10,3.9c-2.6-0.7-4.7-3.2-5.5-5.6
						c-0.6-1.8-4.8-16.1-6.1-24.5c-0.6-3.9-0.4-11.7,1.2-18C1110.7,402.7,1113.4,397.3,1113.4,397.3z"/>
					<path id="XMLID_338_" class="st6" d="M1139.3,503.9l-2.4,6.6c0,0,4.5,6.5,5.2,9.6c0.8,3.6,0.6,6.8,0.3,9.2
						c-0.3,2.4-1.5,4.6-2.2,6.1c0,0-1.2-2.4-1.7-3.6c-0.8-2-2.5-4.1-2.5-4.1s2.8,15.3,0.9,19.6c-1.9,4.2-5.3,6.2-5.3,6.2
						s-4.2,1.9-5.9,3.4s-3.5,4.9-3.5,4.9s4.6-1.9,6.7-1.1c2,0.8,2,2.2,0.4,5.4c-1.6,3.1-4.5,6.8-7.9,9.5c-3.5,2.7-5.6,4-11,8.9
						c-7.3,6.6-9.2,14-9.2,14h12.3c0,0,0.7-2.3,4.1-5.5c3.2-3,5.4-4.6,7-5.3c1.5-0.7,6.1-1.9,7.9,0.7s1,6.9,1,6.9s3.3-3.9,3.9-8.5
						c0.7-5.1-2-7.3,1.2-13c1.5-2.8,5.1-9.3,6.3-13.7c1.2-4.4,2-8.5,3.8-11.3c3.1-4.9,6.4-3.3,7.4-3c3.7,1.3,6.8,5,6.8,5
						s-0.3-5.2-2.6-8.7c-4-6.2-8.8-5.7-11-8.5c-2.2-2.8-4.3-16.8-5.7-20.4C1142,509.4,1139.3,503.9,1139.3,503.9z"/>
				</g>
				<g id="XMLID_333_">
					<path id="XMLID_336_" class="st6" d="M1111.4,608.6c0,0,2.8-2.9,6.1-4.1c4.3-1.5,11.6-1.5,11.6-1.5s-5,1.9-7.2,5.9
						c-0.9,1.6-1.3,4.7,0.3,6.7c2.7,3.3,16.5,13,19.9,23.3c1.3,4,1.9,6.5,2.4,9c0.2,1.2,0.4,2.4,0.5,3.8c0,0.3,0.1,0.7,0.1,1
						c0,0.1,0,0.4,0.1,0.7c0,0.3,0,0.6,0.1,0.9c0.1,1.2,0.2,2.4,0.3,3.8c0.4,5.6,0.1,9,0.3,11.6s0.9,4.3,3.4,7.1
						c2.9,3.3,4.9,8.1,6.1,12.1s1.7,7.2,1.7,7.2s-1.8-2.9-4-5.4c-2.3-2.5-5.1-4.7-7.2-4.2c-2.1,0.4-3.5,2.9-4.5,5.6
						c-1,2.7-1.5,5.7-1.9,7.3c0,0.1-0.1,0.2-0.1,0.4c-2.6-0.5-6.2-1.2-9.4-2c-3.2-0.7-6-1.5-7.4-2s-2.2,0.3-3.4,1.4
						c-1.2,1.1-2.7,2.7-5.3,3.7c-2.5,1-9.4,1-11.7,0.5s-2.3-0.5-2.3-0.5s2.4-0.8,4.6-1.9c2.2-1.2,4.1-2.7,3.8-4.4
						c-0.6-3.2-2.3-5.8-3.6-6.5c-0.6-0.4-4.5-2-8.1-3.7c-0.9-0.4-1.7-0.8-2.6-1.3c-0.4-0.2-0.8-0.4-1.2-0.6
						c-0.4-0.2-0.9-0.4-1.3-0.6c-1.8-0.7-3.4-1.4-4.4-1.7c-6.7-2.2-15.2-3.9-19.5-4.7c-7.3-1.4-12.1-1.9-12.1-1.9s-2.6-3.5-4.2-5.3
						c-1.6-1.8-5.6-5.1-5.6-5.1l13.3,0.8c0,0,2.8-0.1,3.6-1.4c0.7-1.1,1.2-2.3,0.6-4.1c-0.6-1.7-2.1-4.1-2.1-4.1s6,1.2,8.7,6
						c2,3.7,1.1,3.1,4.1,5.4s14.1,5.2,18.1,6.9c0.2,0.1,0.6,0.2,0.9,0.4c0.3,0.2,0.5,0.4,0.8,0.6c0.6,0.5,1.4,1,2.4,1.7
						c1.9,1.3,4.6,2.8,7.8,4.4c3.2,1.6,6.9,3.2,10.3,4.5s6.4,2.4,7.9,2.9c1.6,0.5,4.1,1.4,7.4,2.4c1.4-1.7,3-4.3,4.4-7.9
						c1.3-3.5,2.3-8,2.4-12.4c0-3,0-6.6-0.2-10.5c-0.1-1.9-0.3-4-0.5-5.9c-0.2-1.6-0.5-3.3-0.9-5c-1.6-6.6-4.7-13-10.4-16.8
						c-11.5-7.7-14.3-8.1-14.3-8.1s-0.1-3.3,0.5-7.8C1110.2,611.7,1111.4,608.6,1111.4,608.6z"/>
					<path id="XMLID_335_" class="st6" d="M1113.4,598.3h-12.2c0,0-1,2.1-1.9,6.7c-1.1,5.4-2.4,11.6-1,21.9c0.3,1.8,1.7,6.8-1.5,9.5
						c-5.6,4.7-4.3,11.9-4.3,11.9s3.2-4.9,6-5.4c2.5-0.5,3.9,1,4.6,2.2c0.2,0.3,0.5,1.4,1.1,3c0.3,0.8,0.6,1.7,0.9,2.7
						c0.2,0.5,0.3,1,0.5,1.6c0.1,0.3,0.2,0.5,0.3,0.8c0.1,0.2,0.2,0.2,0.3,0.3c1.6,1.8,3.6,4.6,5.7,7.3c1.6,2,4,5.6,6.3,10.2
						c2.3,4.6,4.6,10.1,6,13.9c-0.7,0.9-1.2,1.5-1.2,1.5l3.9,1.2c1.2-1.5,2.5-3.3,3.7-5.4c0,0-0.5-1.3-1.2-3.3
						c-0.7-1.9-1.7-4.4-2.7-6.7s-2-4.4-2.7-5.9c-0.7-1.5-1.2-2.4-1.2-2.4s-0.6-1-1-2s-0.5-2.1,0.5-2.5c0.9-0.4,1.7-0.8,2.5-1.3
						s1.6-1.3,2.6-2.7c1-1.5,1.6-3.1,1.8-4.1c0.3-1.1,0.3-1.8,0.3-1.8s-5.8,4.5-10,3.5c-2.6-0.6-4.7-2.9-5.5-5
						c-0.6-1.6-4.8-14.4-6.1-21.9c-0.6-3.5-0.4-10.5,1.2-16.1C1110.7,603.2,1113.4,598.3,1113.4,598.3z"/>
					<path id="XMLID_334_" class="st6" d="M1132.1,700c0,0-2.4-0.6-4.9-1.2c-2.3-0.6-4.7-1.2-4.7-1.2s-1,1.1-2.7,2.4
						c-1.7,1.2-4.1,2.5-5.9,2.9c-4.2,0.8-8.5,0.6-11.6,0.3s-6-1.5-7.8-2.2c0,0,0.7-0.3,1.6-0.7c0.9-0.4,1.9-0.8,2.6-1
						c1.1-0.4,2.2-1,3-1.5c0.8-0.5,1.3-0.9,1.3-0.9s-4.1,0.7-9.1,1.2c-1.1,0.1-2.2,0.2-3.3,0.3c-1,0.1-2,0.1-2.9,0.1
						c-1.8,0-3.4-0.2-4.3-0.6c-3.8-1.9-5.5-5.3-5.5-5.3s-1.7-4.2-3-5.9s-4.4-3.5-4.4-3.5s1.7,4.6,1,6.7s-2,2-4.8,0.4
						c-2.8-1.6-6.1-4.5-8.5-7.9c-2.4-3.5-3.6-5.6-8-11c-5.9-7.3-12.5-9.2-12.5-9.2v12.3c0,0,2.1,0.7,4.9,4.1c2.7,3.2,4.1,5.4,4.7,7
						s1.7,6.1-0.6,7.9c-2.3,1.9-6.2,1-6.2,1s3.5,3.3,7.6,3.9c4.5,0.7,6.6-2,11.6,1.2c2.5,1.5,8.3,5.1,12.3,6.3
						c3.9,1.2,7.6,2,10.1,3.8c4.4,3.1,3,6.4,2.7,7.4c-1.1,3.7-4.5,6.8-4.5,6.8s4.6-0.3,7.8-2.6c1.4-1,2.4-2,3.2-3.1
						c0.4-0.5,0.7-1,1-1.6c0-0.1,0.2-0.3,0.3-0.4l0.3-0.4c0.2-0.3,0.4-0.5,0.6-0.7c1.5-2,2.3-3.7,4.2-4.9c1.9-1.1,7.7-2.2,13.2-3.2
						s10.9-1.8,12.8-2.5s4.1-1.7,5.7-2.5C1131,700.7,1132.1,700,1132.1,700z"/>
				</g>
				<g id="XMLID_329_">
					<path id="XMLID_332_" class="st6" d="M1027.2,672.1c0,0,3,2.8,4.1,6.1c1.5,4.3,1.5,11.6,1.5,11.6s-2-5-6-7.2
						c-1.6-0.9-4.7-1.3-6.8,0.3c-3.3,2.7-13.1,16.5-23.6,19.9c-8.1,2.6-10.2,2.5-17.6,3.3c-7.4,0.8-9.3-1.3-11.5,3.6
						c-2.6,5.9-8.8,7.8-8.8,7.8s3.7-7,1.4-11.3c-2.4-4.3-9.7-5.5-12.8-6.4c-3.2-0.9-9.2-3-11-4c-1.8-0.9-4.6,3-9.1,5.2
						c-2.2,1-7.1,1-8.8,0.5c-1.6-0.5-1.6-0.5-1.6-0.5s7.5-3,8-6.3c0.5-3.2-0.1-5.8-1.2-6.5c-1-0.8-13.6-6.4-17.9-7.8
						c-6.7-2.2-15.4-3.9-19.8-4.7c-7.4-1.4-12.3-1.9-12.3-1.9s-2.7-3.5-4.3-5.3s-5.7-5.1-5.7-5.1l13.4,0.8c0,0,2.8-0.1,3.6-1.4
						c0.7-1.1,1.2-2.3,0.6-4.1c-0.6-1.7-2.1-4.1-2.1-4.1s6.1,1.2,8.8,6c2.1,3.7,1.1,3.1,4.1,5.4c3,2.3,14.3,5.2,18.3,6.9
						s27,12.4,31.5,14.4s17.6,8.9,27.4,9.1c9.8,0.2,27.7-0.6,35.5-12.1s8.2-14.3,8.2-14.3s3.3-0.1,7.9,0.5
						C1024,670.9,1027.2,672.1,1027.2,672.1z"/>
					<path id="XMLID_331_" class="st6" d="M1037.6,674.1v-12.2c0,0-2.1-1-6.7-1.9c-5.4-1.1-11.7-2.4-22.1-1
						c-1.8,0.3-6.9,1.7-9.6-1.5c-4.7-5.6-12-4.3-12-4.3s4.9,3.2,5.5,6c0.5,2.5-1,3.9-2.2,4.6c-1.2,0.7-15.4,4.6-22.1,8.8
						c-6.6,4.2-24.5,13.8-24.5,13.8l11.4,4.9l14.5-7.9c0,0,3.6-2.5,5.1-0.5c1.5,1.9,2.1,3.1,5.2,5.1c3.2,2.1,6,2.1,6,2.1
						s-4.5-5.8-3.6-10c0.6-2.6,2.9-4.7,5.1-5.5c1.6-0.6,14.6-4.8,22.2-6.1c3.5-0.6,10.6-0.4,16.3,1.2
						C1032.7,671.4,1037.6,674.1,1037.6,674.1z"/>
					<path id="XMLID_330_" class="st6" d="M941.2,700l-6-2.4c0,0-5.9,4.5-8.7,5.2c-3.2,0.8-6.1,0.6-8.3,0.3s-4.1-1.5-5.5-2.2
						c0,0,2.2-1.2,3.3-1.7c1.8-0.8,3.7-2.5,3.7-2.5s-13.9,2.8-17.7,0.9c-3.8-1.9-5.6-5.3-5.6-5.3s-1.7-4.2-3-5.9s-4.5-3.5-4.5-3.5
						s1.7,4.6,1,6.7c-0.7,2-2,2-4.9,0.4c-2.8-1.6-6.2-4.5-8.6-7.9c-2.4-3.5-3.6-5.6-8.1-11c-5.9-7.3-12.6-9.2-12.6-9.2v12.3
						c0,0,2.1,0.7,5,4.1c2.7,3.2,4.1,5.4,4.8,7s1.8,6.1-0.6,7.9c-2.4,1.9-6.2,1-6.2,1s3.5,3.3,7.7,3.9c4.6,0.7,6.6-2,11.8,1.2
						c2.5,1.5,8.4,5.1,12.4,6.3s7.7,2,10.2,3.8c4.4,3.1,3,6.4,2.7,7.4c-1.2,3.7-4.5,6.8-4.5,6.8s4.7-0.3,7.9-2.6
						c5.6-4,5.2-8.8,7.7-11c2.5-2.3,15.2-4.3,18.5-5.7C936.2,702.7,941.2,700,941.2,700z"/>
				</g>
				<g id="XMLID_325_">
					<path id="XMLID_328_" class="st6" d="M845.4,672.1c0,0,3,2.8,4.1,6.1c1.5,4.3,1.5,11.6,1.5,11.6s-2-5-6-7.2
						c-1.6-0.9-4.7-1.3-6.8,0.3c-3.3,2.7-13.1,16.5-23.6,19.9c-8.1,2.6-10.2,2.5-17.6,3.3c-7.4,0.8-9.3-1.3-11.5,3.6
						c-2.6,5.9-8.8,7.8-8.8,7.8s3.7-7,1.4-11.3c-2.4-4.3-9.7-5.5-12.8-6.4c-3.2-0.9-9.2-3-11-4c-1.8-0.9-4.6,3-9.1,5.2
						c-2.2,1-7.1,1-8.8,0.5c-1.6-0.5-1.6-0.5-1.6-0.5s7.5-3,8-6.3c0.5-3.2-0.1-5.8-1.2-6.5c-1-0.8-13.6-6.4-17.9-7.8
						c-6.7-2.2-15.4-3.9-19.8-4.7c-7.4-1.4-12.3-1.9-12.3-1.9s-2.7-3.5-4.3-5.3s-5.7-5.1-5.7-5.1l13.4,0.8c0,0,2.8-0.1,3.6-1.4
						c0.7-1.1,1.2-2.3,0.6-4.1c-0.6-1.7-2.1-4.1-2.1-4.1s6.1,1.2,8.8,6c2.1,3.7,1.1,3.1,4.1,5.4c3,2.3,14.3,5.2,18.3,6.9
						s27,12.4,31.5,14.4s17.6,8.9,27.4,9.1c9.8,0.2,27.7-0.6,35.5-12.1s8.2-14.3,8.2-14.3s3.3-0.1,7.9,0.5
						C842.2,670.9,845.4,672.1,845.4,672.1z"/>
					<path id="XMLID_327_" class="st6" d="M855.7,674.1v-12.2c0,0-2.1-1-6.7-1.9c-5.4-1.1-11.7-2.4-22.1-1c-1.8,0.3-6.9,1.7-9.6-1.5
						c-4.7-5.6-12-4.3-12-4.3s4.9,3.2,5.5,6c0.5,2.5-1,3.9-2.2,4.6c-1.2,0.7-15.4,4.6-22.1,8.8c-6.6,4.2-24.5,13.8-24.5,13.8
						l11.4,4.9l14.5-7.9c0,0,3.6-2.5,5.1-0.5c1.5,1.9,2.1,3.1,5.2,5.1c3.2,2.1,6,2.1,6,2.1s-4.5-5.8-3.6-10c0.6-2.6,2.9-4.7,5.1-5.5
						c1.6-0.6,14.6-4.8,22.2-6.1c3.5-0.6,10.6-0.4,16.3,1.2C850.8,671.4,855.7,674.1,855.7,674.1z"/>
					<path id="XMLID_326_" class="st6" d="M759.3,700l-6-2.4c0,0-5.9,4.5-8.7,5.2c-3.2,0.8-6.1,0.6-8.3,0.3s-4.1-1.5-5.5-2.2
						c0,0,2.2-1.2,3.3-1.7c1.8-0.8,3.7-2.5,3.7-2.5s-13.9,2.8-17.7,0.9c-3.8-1.9-5.6-5.3-5.6-5.3s-1.7-4.2-3-5.9s-4.5-3.5-4.5-3.5
						s1.7,4.6,1,6.7c-0.7,2-2,2-4.9,0.4c-2.8-1.6-6.2-4.5-8.6-7.9c-2.4-3.5-3.6-5.6-8.1-11c-5.9-7.3-12.6-9.2-12.6-9.2v12.3
						c0,0,2.1,0.7,5,4.1c2.7,3.2,4.1,5.4,4.8,7c0.7,1.6,1.8,6.1-0.6,7.9c-2.4,1.9-6.2,1-6.2,1s3.5,3.3,7.7,3.9
						c4.6,0.7,6.6-2,11.8,1.2c2.5,1.5,8.4,5.1,12.4,6.3s7.7,2,10.2,3.8c4.4,3.1,3,6.4,2.7,7.4c-1.2,3.7-4.5,6.8-4.5,6.8
						s4.7-0.3,7.9-2.6c5.6-4,5.2-8.8,7.7-11c2.5-2.3,15.2-4.3,18.5-5.7C754.3,702.7,759.3,700,759.3,700z"/>
				</g>
				<g id="XMLID_321_">
					<path id="XMLID_324_" class="st6" d="M663.5,672.1c0,0,3,2.8,4.1,6.1c1.5,4.3,1.5,11.6,1.5,11.6s-2-5-6-7.2
						c-1.6-0.9-4.7-1.3-6.8,0.3c-3.3,2.7-13.1,16.5-23.6,19.9c-8.1,2.6-10.2,2.5-17.6,3.3c-7.4,0.8-9.3-1.3-11.5,3.6
						c-2.6,5.9-8.8,7.8-8.8,7.8s3.7-7,1.4-11.3c-2.4-4.3-9.7-5.5-12.8-6.4c-3.2-0.9-9.2-3-11-4c-1.8-0.9-4.6,3-9.1,5.2
						c-2.2,1-7.1,1-8.8,0.5c-1.6-0.5-1.6-0.5-1.6-0.5s7.5-3,8-6.3c0.5-3.2-0.1-5.8-1.2-6.5c-1-0.8-13.6-6.4-17.9-7.8
						c-6.7-2.2-15.4-3.9-19.8-4.7c-7.4-1.4-12.3-1.9-12.3-1.9s-2.7-3.5-4.3-5.3c-1.6-1.8-5.7-5.1-5.7-5.1l13.4,0.8
						c0,0,2.8-0.1,3.6-1.4c0.7-1.1,1.2-2.3,0.6-4.1c-0.6-1.7-2.1-4.1-2.1-4.1s6.1,1.2,8.8,6c2.1,3.7,1.1,3.1,4.1,5.4
						s14.3,5.2,18.3,6.9s27,12.4,31.5,14.4s17.6,8.9,27.4,9.1c9.8,0.2,27.7-0.6,35.5-12.1c7.8-11.5,8.2-14.3,8.2-14.3
						s3.3-0.1,7.9,0.5C660.3,670.9,663.5,672.1,663.5,672.1z"/>
					<path id="XMLID_323_" class="st6" d="M673.9,674.1v-12.2c0,0-2.1-1-6.7-1.9c-5.4-1.1-11.7-2.4-22.1-1c-1.8,0.3-6.9,1.7-9.6-1.5
						c-4.7-5.6-12-4.3-12-4.3s4.9,3.2,5.5,6c0.5,2.5-1,3.9-2.2,4.6c-1.2,0.7-15.4,4.6-22.1,8.8c-6.6,4.2-24.5,13.8-24.5,13.8
						l11.4,4.9l14.5-7.9c0,0,3.6-2.5,5.1-0.5c1.5,1.9,2.1,3.1,5.2,5.1c3.2,2.1,6,2.1,6,2.1s-4.5-5.8-3.6-10c0.6-2.6,2.9-4.7,5.1-5.5
						c1.6-0.6,14.6-4.8,22.2-6.1c3.5-0.6,10.6-0.4,16.3,1.2C668.9,671.4,673.9,674.1,673.9,674.1z"/>
					<path id="XMLID_322_" class="st6" d="M577.4,700l-6-2.4c0,0-5.9,4.5-8.7,5.2c-3.2,0.8-6.1,0.6-8.3,0.3
						c-2.2-0.3-4.1-1.5-5.5-2.2c0,0,2.2-1.2,3.3-1.7c1.8-0.8,3.7-2.5,3.7-2.5s-13.9,2.8-17.7,0.9c-3.8-1.9-5.6-5.3-5.6-5.3
						s-1.7-4.2-3-5.9s-4.5-3.5-4.5-3.5s1.7,4.6,1,6.7c-0.7,2-2,2-4.9,0.4c-2.8-1.6-6.2-4.5-8.6-7.9c-2.4-3.5-3.6-5.6-8.1-11
						c-5.9-7.3-12.6-9.2-12.6-9.2v12.3c0,0,2.1,0.7,5,4.1c2.7,3.2,4.1,5.4,4.8,7c0.6,1.5,1.8,6.1-0.6,7.9s-6.2,1-6.2,1
						s3.5,3.3,7.7,3.9c4.6,0.7,6.6-2,11.8,1.2c2.5,1.5,8.4,5.1,12.4,6.3s7.7,2,10.2,3.8c4.4,3.1,3,6.4,2.7,7.4
						c-1.2,3.7-4.5,6.8-4.5,6.8s4.7-0.3,7.9-2.6c5.6-4,5.2-8.8,7.7-11s15.2-4.3,18.5-5.7C572.4,702.7,577.4,700,577.4,700z"/>
				</g>
				<g id="XMLID_317_">
					<path id="XMLID_320_" class="st6" d="M481.6,672.1c0,0,3,2.8,4.1,6.1c1.5,4.3,1.5,11.6,1.5,11.6s-2-5-6-7.2
						c-1.6-0.9-4.7-1.3-6.8,0.3c-3.3,2.7-13.1,16.5-23.6,19.9c-8.1,2.6-10.2,2.5-17.6,3.3s-9.3-1.3-11.5,3.6
						c-2.6,5.9-8.8,7.8-8.8,7.8s3.7-7,1.4-11.3c-2.4-4.3-9.7-5.5-12.8-6.4c-3.2-0.9-9.2-3-11-4c-1.8-0.9-4.6,3-9.1,5.2
						c-2.2,1-7.1,1-8.8,0.5C371,701,371,701,371,701s7.5-3,8-6.3c0.5-3.2-0.1-5.8-1.2-6.5c-1-0.8-13.6-6.4-17.9-7.8
						c-6.7-2.2-15.4-3.9-19.8-4.7c-7.4-1.4-12.3-1.9-12.3-1.9s-2.7-3.5-4.3-5.3c-1.6-1.8-5.7-5.1-5.7-5.1l13.4,0.8
						c0,0,2.8-0.1,3.6-1.4c0.7-1.1,1.2-2.3,0.6-4.1c-0.6-1.7-2.1-4.1-2.1-4.1s6.1,1.2,8.8,6c2.1,3.7,1.1,3.1,4.1,5.4
						c3,2.3,14.3,5.2,18.3,6.9s27,12.4,31.5,14.4s17.6,8.9,27.4,9.1c9.8,0.2,27.7-0.6,35.5-12.1s8.2-14.3,8.2-14.3s3.3-0.1,7.9,0.5
						C478.4,670.9,481.6,672.1,481.6,672.1z"/>
					<path id="XMLID_319_" class="st6" d="M492,674.1v-12.2c0,0-2.1-1-6.7-1.9c-5.4-1.1-11.7-2.4-22.1-1c-1.8,0.3-6.9,1.7-9.6-1.5
						c-4.7-5.6-12-4.3-12-4.3s4.9,3.2,5.5,6c0.5,2.5-1,3.9-2.2,4.6s-15.4,4.6-22.1,8.8c-6.6,4.2-24.5,13.8-24.5,13.8l11.4,4.9
						l14.5-7.9c0,0,3.6-2.5,5.1-0.5c1.5,1.9,2.1,3.1,5.2,5.1c3.2,2.1,6,2.1,6,2.1s-4.5-5.8-3.6-10c0.6-2.6,2.9-4.7,5.1-5.5
						c1.6-0.6,14.6-4.8,22.2-6.1c3.5-0.6,10.6-0.4,16.3,1.2C487.1,671.4,492,674.1,492,674.1z"/>
					<path id="XMLID_318_" class="st6" d="M395.6,700l-6-2.4c0,0-5.9,4.5-8.7,5.2c-3.2,0.8-6.1,0.6-8.3,0.3s-4.1-1.5-5.5-2.2
						c0,0,2.2-1.2,3.3-1.7c1.8-0.8,3.7-2.5,3.7-2.5s-13.9,2.8-17.7,0.9c-3.8-1.9-5.6-5.3-5.6-5.3s-1.7-4.2-3-5.9
						c-1.3-1.7-4.5-3.5-4.5-3.5s1.7,4.6,1,6.7c-0.7,2-2,2-4.9,0.4c-2.8-1.6-6.2-4.5-8.6-7.9c-2.4-3.5-3.6-5.6-8.1-11
						c-5.9-7.3-12.6-9.2-12.6-9.2v12.3c0,0,2.1,0.7,5,4.1c2.7,3.2,4.1,5.4,4.8,7c0.6,1.5,1.8,6.1-0.6,7.9c-2.4,1.9-6.2,1-6.2,1
						s3.5,3.3,7.7,3.9c4.6,0.7,6.6-2,11.8,1.2c2.5,1.5,8.4,5.1,12.4,6.3s7.7,2,10.2,3.8c4.4,3.1,3,6.4,2.7,7.4
						c-1.2,3.7-4.5,6.8-4.5,6.8s4.7-0.3,7.9-2.6c5.6-4,5.2-8.8,7.7-11c2.5-2.3,15.2-4.3,18.5-5.7C390.8,702.9,395.6,700,395.6,700z"
						/>
				</g>
				<g id="XMLID_313_">
					<path id="XMLID_316_" class="st6" d="M299.9,672.1c0,0,2.9,2.8,4.1,6.1c1.5,4.3,1.5,11.6,1.5,11.6s-1.9-5-5.9-7.2
						c-1.6-0.9-4.7-1.3-6.7,0.3c-3.3,2.7-13,16.5-23.3,19.9c-4,1.3-6.5,1.9-9,2.4c-1.2,0.2-2.4,0.4-3.8,0.5c-0.3,0-0.7,0.1-1,0.1
						c-0.1,0-0.4,0-0.7,0.1c-0.3,0-0.6,0-0.9,0.1c-1.2,0.1-2.4,0.2-3.8,0.3c-5.6,0.4-9,0.1-11.6,0.3s-4.3,0.9-7.1,3.4
						c-3.3,2.9-8.1,4.9-12.1,6.1c-4,1.2-7.2,1.7-7.2,1.7s2.9-1.8,5.4-4c2.5-2.3,4.7-5.1,4.2-7.2c-0.4-2.1-2.9-3.5-5.6-4.5
						s-5.7-1.5-7.3-1.9c-0.1,0-0.2-0.1-0.4-0.1c0.5-2.6,1.2-6.2,2-9.4c0.7-3.2,1.5-6,2-7.4s-0.3-2.2-1.4-3.4
						c-1.1-1.2-2.7-2.7-3.7-5.3c-1-2.5-1-9.4-0.5-11.7s0.5-2.3,0.5-2.3s0.8,2.4,1.9,4.6c1.2,2.2,2.7,4.1,4.4,3.8
						c3.2-0.6,5.8-2.3,6.5-3.6c0.4-0.6,2-4.5,3.7-8.1c0.4-0.9,0.8-1.7,1.3-2.6c0.2-0.4,0.4-0.8,0.6-1.2c0.2-0.4,0.4-0.9,0.6-1.3
						c0.7-1.8,1.4-3.4,1.7-4.4c2.2-6.7,3.9-15.2,4.7-19.5c1.4-7.3,1.9-12.1,1.9-12.1s3.5-2.6,5.3-4.2c1.8-1.6,5.1-5.6,5.1-5.6
						l-0.8,13.3c0,0,0.1,2.8,1.4,3.6c1.1,0.7,2.3,1.2,4.1,0.6c1.7-0.6,4.1-2.1,4.1-2.1s-1.2,6-6,8.7c-3.7,2-3.1,1.1-5.4,4.1
						c-2.3,3-5.2,14.1-6.9,18.1c-0.1,0.2-0.2,0.6-0.4,0.9c-0.2,0.3-0.4,0.5-0.6,0.8c-0.5,0.6-1,1.4-1.7,2.4
						c-1.3,1.9-2.8,4.6-4.4,7.8c-1.6,3.2-3.2,6.9-4.5,10.3c-1.3,3.4-2.4,6.4-2.9,7.9c-0.5,1.6-1.4,4.1-2.4,7.4
						c1.7,1.4,4.3,3,7.9,4.4c3.5,1.3,8,2.3,12.4,2.4c3,0,6.6,0,10.5-0.2c1.9-0.1,4-0.3,5.9-0.5c1.6-0.2,3.3-0.5,5-0.9
						c6.6-1.6,13-4.7,16.8-10.4c7.7-11.5,8.1-14.3,8.1-14.3s3.3-0.1,7.8,0.5C296.7,670.9,299.9,672.1,299.9,672.1z"/>
					<path id="XMLID_315_" class="st6" d="M310.1,674.1v-12.2c0,0-2.1-1-6.7-1.9c-5.4-1.1-11.6-2.4-21.9-1c-1.8,0.3-6.8,1.7-9.5-1.5
						c-4.7-5.6-11.9-4.3-11.9-4.3s4.9,3.2,5.4,6c0.5,2.5-1,3.9-2.2,4.6c-0.3,0.2-1.4,0.5-3,1.1c-0.8,0.3-1.7,0.6-2.7,0.9
						c-0.5,0.2-1,0.3-1.6,0.5c-0.3,0.1-0.5,0.2-0.8,0.3c-0.2,0.1-0.2,0.2-0.3,0.3c-1.8,1.6-4.6,3.6-7.3,5.7c-2,1.6-5.6,4-10.2,6.3
						c-4.6,2.3-10.1,4.6-13.9,6c-0.9-0.7-1.5-1.2-1.5-1.2l-1.2,3.9c1.5,1.2,3.3,2.5,5.4,3.7c0,0,1.3-0.5,3.3-1.2
						c1.9-0.7,4.4-1.7,6.7-2.7s4.4-2,5.9-2.7s2.4-1.2,2.4-1.2s1-0.6,2-1s2.1-0.5,2.5,0.5c0.4,0.9,0.8,1.7,1.3,2.5s1.3,1.6,2.7,2.6
						c1.5,1,3.1,1.6,4.1,1.8c1.1,0.3,1.8,0.3,1.8,0.3s-4.5-5.8-3.5-10c0.6-2.6,2.9-4.7,5-5.5c1.6-0.6,14.4-4.8,21.9-6.1
						c3.5-0.6,10.5-0.4,16.1,1.2C305.3,671.4,310.1,674.1,310.1,674.1z"/>
					<path id="XMLID_314_" class="st6" d="M208.4,692.8c0,0,0.6-2.4,1.2-4.9c0.6-2.3,1.2-4.7,1.2-4.7s-1.1-1-2.4-2.8
						c-1.2-1.7-2.5-4.1-2.9-5.9c-0.8-4.2-0.6-8.5-0.3-11.6s1.5-6,2.2-7.8c0,0,0.3,0.7,0.7,1.6c0.4,0.9,0.8,1.9,1,2.6
						c0.4,1.1,1,2.2,1.5,3s0.9,1.3,0.9,1.3s-0.7-4.1-1.2-9.1c-0.1-1.1-0.2-2.2-0.3-3.3c-0.1-1-0.1-2-0.1-2.9c0-1.8,0.2-3.4,0.6-4.3
						c1.9-3.8,5.3-5.5,5.3-5.5s4.2-1.7,5.9-3c1.7-1.3,3.5-4.4,3.5-4.4s-4.6,1.7-6.7,1c-2-0.7-2-2-0.4-4.8c1.6-2.8,4.5-6.1,7.9-8.5
						c3.5-2.4,5.6-3.6,11-8c7.3-5.9,9.2-12.5,9.2-12.5h-11.9c0,0-0.7,2.1-4.1,4.9c-3.2,2.7-5.4,4.1-7,4.7c-1.5,0.6-6.1,1.7-7.9-0.6
						c-1.9-2.3-1-6.2-1-6.2s-3.3,3.5-3.9,7.6c-0.7,4.5,2,6.6-1.2,11.6c-1.5,2.5-5.1,8.3-6.3,12.3c-1.2,3.9-2,7.6-3.8,10.1
						c-3.1,4.4-6.4,3-7.4,2.7c-3.7-1.1-6.8-4.5-6.8-4.5s0.3,4.6,2.6,7.8c1,1.4,2,2.4,3.1,3.2c0.5,0.4,1,0.7,1.6,1
						c0.1,0,0.3,0.2,0.4,0.3l0.4,0.3c0.3,0.2,0.5,0.4,0.7,0.6c2,1.5,3.7,2.3,4.9,4.2c1.1,1.9,2.2,7.7,3.2,13.2s1.8,10.9,2.5,12.8
						c0.7,1.9,1.7,4.1,2.5,5.7C207.7,691.7,208.4,692.8,208.4,692.8z"/>
				</g>
			</g>
		</g>
	</g>
</g>
<g id="Layer_2">
	<g id="XMLID_7_" class="st0">
		<path id="XMLID_10_" class="st7" d="M598.9,358.4c0,0-3.5-3.2-4.8-7.2c-1.7-5.1-1.7-13.7-1.7-13.7s2.3,5.9,7,8.5
			c1.9,1.1,5.5,1.6,7.9-0.4c3.9-3.1,15.3-19.5,27.5-23.5c9.4-3.1,11.9-3,20.5-3.9c8.6-1,10.8,1.5,13.4-4.3
			c3.1-6.9,10.3-9.2,10.3-9.2s-4.4,8.3-1.6,13.3c2.7,5,11.3,6.5,15,7.6c3.7,1.1,10.8,3.6,12.9,4.7c2.1,1.1,5.3-3.5,10.7-6.1
			c2.5-1.2,8.3-1.1,10.2-0.5s1.9,0.6,1.9,0.6s-8.7,3.6-9.4,7.5c-0.6,3.8,0.1,6.8,1.3,7.7c1.2,0.9,15.9,7.5,20.9,9.2
			c7.8,2.6,17.9,4.6,23,5.5c8.6,1.7,14.3,2.3,14.3,2.3s3.1,4.1,5,6.3c1.9,2.1,6.7,6,6.7,6l-15.6-0.9c0,0-3.3,0.2-4.2,1.6
			c-0.8,1.3-1.4,2.8-0.7,4.8s2.4,4.8,2.4,4.8s-7.1-1.4-10.3-7.1c-2.4-4.3-1.3-3.6-4.8-6.3c-3.5-2.7-16.7-6.2-21.3-8.1
			s-31.5-14.7-36.7-17s-20.5-10.6-32-10.8c-11.4-0.2-32.3,0.7-41.4,14.3c-9.1,13.6-9.6,16.9-9.6,16.9s-3.8,0.1-9.3-0.5
			C602.6,359.8,598.9,358.4,598.9,358.4z"/>
		<path id="XMLID_9_" class="st7" d="M586.8,356.1v14.4c0,0,2.5,1.1,7.8,2.2c6.3,1.3,13.7,2.8,25.8,1.2c2.2-0.3,8-2,11.2,1.8
			c5.5,6.7,14,5.1,14,5.1s-5.7-3.8-6.4-7.1c-0.6-3,1.2-4.6,2.5-5.4c1.3-0.8,18-5.4,25.8-10.4c7.8-5,28.6-16.2,28.6-16.2l-13.2-5.8
			l-16.9,9.3c0,0-4.2,2.9-6,0.6c-1.8-2.2-2.4-3.6-6.1-6c-3.8-2.5-7-2.5-7-2.5s5.3,6.9,4.2,11.8c-0.7,3.1-3.4,5.6-5.9,6.5
			c-1.9,0.7-17,5.7-25.9,7.2c-4.1,0.7-12.4,0.5-19-1.4C592.5,359.3,586.8,356.1,586.8,356.1z"/>
		<path id="XMLID_8_" class="st7" d="M699.3,325.5l7,2.8c0,0,6.9-5.4,10.2-6.1c3.8-0.9,7.2-0.8,9.7-0.4c2.5,0.4,4.8,1.7,6.4,2.6
			c0,0-2.6,1.4-3.8,2c-2.1,1-4.4,2.9-4.4,2.9s16.2-3.3,20.7-1.1s6.5,6.3,6.5,6.3s2,4.9,3.5,7s5.2,4.1,5.2,4.1s-2-5.4-1.2-7.8
			s2.4-2.4,5.7-0.5s7.2,5.3,10,9.4s4.3,6.6,9.4,13c6.9,8.6,14.7,10.8,14.7,10.8V356c0,0-2.5-0.8-5.8-4.8c-3.1-3.8-4.8-6.4-5.6-8.2
			c-0.7-1.8-2-7.1,0.7-9.4s7.3-1.1,7.3-1.1s-4.1-3.8-9-4.6c-5.3-0.8-7.7,2.3-13.7-1.4c-2.9-1.8-9.8-6-14.5-7.4s-9-2.4-11.9-4.5
			c-5.2-3.7-3.5-7.5-3.1-8.7c1.3-4.3,5.3-8,5.3-8s-5.4,0.4-9.2,3.1c-6.5,4.7-6,10.3-8.9,13c-2.9,2.7-17.7,5.1-21.6,6.7
			C705.1,322.4,699.3,325.5,699.3,325.5z"/>
	</g>
	<g id="XMLID_1_" class="st0">
		<g id="XMLID_197_" class="st8">
			<g id="XMLID_201_">
				<g id="XMLID_238_">
					<path id="XMLID_241_" class="st6" d="M436.4,85.6c0,0-2.2-2.3-3.4-7c-1.7-6.1-1.7-16.4-1.7-16.4s8.3,15.9,14.4,9.8
						c3.7-3.8,14.7-23.4,26.5-28.2c9.1-3.7,11.5-3.6,19.8-4.7s10.4,1.9,12.9-5.1c2.9-8.3,9.9-11.1,9.9-11.1s-4.2,9.9-1.6,16
						c2.6,6,10.9,7.8,14.4,9.1c3.6,1.3,10.4,4.3,12.4,5.7c2,1.3,5.2-4.3,10.3-7.3c2.4-1.4,8-1.4,9.9-0.6c1.9,0.7,1.9,0.7,1.9,0.7
						s-8.4,4.3-9,9c-0.6,4.6,0.1,8.1,1.3,9.2c1.2,1.1,15.3,9,20.1,11c7.6,3.1,17.3,5.5,22.2,6.6c8.3,2,13.8,2.7,13.8,2.7
						s2.6,5,4.2,7.8c1.6,2.8,4.9,6.7,4.9,6.7l-12.9-0.9c0,0-3.2,0.2-4.1,2c-0.8,1.6-1.3,3.3-0.7,5.7c0.7,2.4,2.4,5.8,2.4,5.8
						s-6.9-1.6-9.9-8.5c-2.3-5.2-1.2-4.4-4.6-7.6c-3.4-3.2-16.1-7.4-20.5-9.7C564.9,84,539,68.7,534,65.9
						c-5-2.8-19.8-12.7-30.8-12.9s-31.2,0.8-40,17.1S454,90.3,454,90.3L436.4,85.6z"/>
					<path id="XMLID_240_" class="st6" d="M425.9,84.4v17.8c0,0,0.6,0.4,7.6,2.1c6.1,1.5,13.2,3.4,24.9,1.4
						c2.1-0.4,7.7-2.3,10.8,2.2c4.6,6.8,13.5,6.1,13.5,6.1s-5.2-6.3-5.5-9.1c-0.4-2.8,0.5-4.9,1.8-5.9s17.4-6.5,24.8-12.5
						s26.7-18.9,26.7-18.9l-13.2-6.7l-15.1,10.5c0,0-3.6,2.9-5.8,0.8c-2.2-2.2-2.6-4.1-6.2-6.9c-4.8-3.7-6.4-3.2-6.4-3.2
						s4,10.4,2.9,13.9s-2.1,6.8-4.6,8c-1.8,0.9-16.3,7.1-24.9,8.9c-3.9,0.8-12,0.4-18.3-1.9C431.5,88.3,425.9,84.4,425.9,84.4z"/>
					<path id="XMLID_239_" class="st6" d="M535.1,47.2l6.7,3.3c0,0,5.7-5.7,8.9-6.6c3.6-1.1,7.2-1.2,9.7-0.7
						c2.4,0.4,5.4,2.8,6.9,3.8c0,0-3.8,1.8-5,2.5c-1.3,0.7-4,3-4,3s15.6-3.9,19.9-1.3s6.3,7.5,6.3,7.5s1.9,5.9,3.4,8.4s5,4.9,5,4.9
						s-1.9-6.5-1.1-9.4c0.8-2.9,2.7-3.6,5.5-0.6s6.9,6.4,9.6,11.2c2.7,4.9,4.7,9.7,9.7,17.4c6.7,10.3,13.6,11.7,13.6,11.7V84.4
						c0,0-2.4-1-5.6-5.7c-3-4.5-4.7-7.7-5.4-9.9s-2-8.6,0.7-11.2c2.7-2.7,7-1.4,7-1.4s-3.9-4.3-8.6-5c-3.3-0.5-10.5,0-13.3-2.2
						c-2.8-2.2-9.5-7.2-13.9-8.9c-4.4-1.7-12.8-4.5-13.8-6.5c-1-2.1-2.9-7.5-1.3-12.1c1.7-4.6,7-8.2,7-8.2s-8.9,0.5-11.6,3.8
						c-2.7,3.3-7.7,11.7-10.5,14.9c-2.8,3.2-13.9,8.1-17.6,10.1S535.1,47.2,535.1,47.2z"/>
				</g>
				<g id="XMLID_234_">
					<path id="XMLID_237_" class="st6" d="M640.7,85.6c0,0-2.2-2.3-3.4-7c-1.7-6.1-1.7-16.4-1.7-16.4S644,78.1,650,72
						c3.7-3.8,14.7-23.4,26.5-28.2c9.1-3.7,11.5-3.6,19.8-4.7s10.4,1.9,12.9-5.1c2.9-8.3,9.9-11.1,9.9-11.1s-4.2,9.9-1.6,16
						s10.9,7.8,14.4,9.1c3.6,1.3,10.4,4.3,12.4,5.7c2,1.3,5.2-4.3,10.3-7.3c2.4-1.4,8-1.4,9.9-0.6c1.9,0.7,1.9,0.7,1.9,0.7
						s-8.4,4.3-9,9c-0.6,4.6,0.1,8.1,1.3,9.2c1.2,1.1,15.3,9,20.1,11c7.6,3.1,17.3,5.5,22.2,6.6c8.3,2,13.8,2.7,13.8,2.7
						s2.6,5,4.2,7.8c1.6,2.8,4.9,6.7,4.9,6.7L811,98.6c0,0-3.2,0.2-4.1,2c-0.8,1.6-1.3,3.3-0.7,5.7c0.7,2.4,2.4,5.8,2.4,5.8
						s-6.9-1.6-9.9-8.5c-2.3-5.2-1.2-4.4-4.6-7.6c-3.4-3.2-16.1-7.4-20.5-9.7c-4.5-2.3-30.3-17.6-35.4-20.4
						c-5-2.8-19.8-12.7-30.8-12.9s-31.1,0.8-39.8,17.1c-8.8,16.3-9.2,20.2-9.2,20.2L640.7,85.6z"/>
					<path id="XMLID_236_" class="st6" d="M630.2,84.4v17.8c0,0,0.6,0.4,7.6,2.1c6.1,1.5,13.2,3.4,24.9,1.4
						c2.1-0.4,7.7-2.3,10.8,2.2c4.6,6.8,13.5,6.1,13.5,6.1s-5.2-6.3-5.5-9.1c-0.4-2.8,0.5-4.9,1.8-5.9s17.4-6.5,24.8-12.5
						c7.5-6,26.7-18.9,26.7-18.9l-13.2-6.7l-15,10.5c0,0-3.6,2.9-5.8,0.8s-2.6-4.1-6.2-6.9c-4.8-3.7-6.4-3.2-6.4-3.2
						s4,10.4,2.9,13.9s-2.1,6.8-4.6,8c-1.8,0.9-16.3,7.1-24.9,8.9c-3.9,0.8-12,0.4-18.3-1.9C635.8,88.3,630.2,84.4,630.2,84.4z"/>
					<path id="XMLID_235_" class="st6" d="M739.4,47.2l6.7,3.3c0,0,5.7-5.7,8.9-6.6c3.6-1.1,7.2-1.2,9.7-0.7
						c2.4,0.4,5.4,2.8,6.9,3.8c0,0-3.8,1.8-5,2.5c-1.3,0.7-4,3-4,3s15.6-3.9,19.9-1.3c4.3,2.6,6.3,7.5,6.3,7.5s1.9,5.9,3.4,8.4
						s5,4.9,5,4.9s-1.9-6.5-1.1-9.4c0.8-2.9,2.7-3.6,5.5-0.6s6.9,6.4,9.6,11.2c2.7,4.9,4.7,9.7,9.7,17.4
						c6.7,10.3,13.6,11.7,13.6,11.7V84.4c0,0-2.4-1-5.6-5.7c-3-4.5-4.7-7.7-5.4-9.9s-2-8.6,0.7-11.2c2.7-2.7,7-1.4,7-1.4
						s-3.9-4.3-8.6-5c-3.3-0.5-10.5,0-13.3-2.2s-9.5-7.2-13.9-8.9c-4.5-1.7-12.8-4.5-13.8-6.5c-1-2.1-2.9-7.5-1.3-12.1
						c1.7-4.6,7-8.2,7-8.2s-8.9,0.5-11.6,3.8C773,20.4,768,28.8,765.2,32s-13.9,8.1-17.6,10.1S739.4,47.2,739.4,47.2z"/>
				</g>
				<g id="XMLID_230_">
					<path id="XMLID_233_" class="st6" d="M847.6,85.6c0,0-2.7-2.3-4.3-7c-2.1-6.1-2.1-16.4-2.1-16.4s10.4,15.9,17.9,9.8
						c4.7-3.8,18.4-23.4,33-28.2c5.6-1.9,9.2-2.8,12.7-3.3c1.7-0.3,3.4-0.5,5.3-0.7c0.2,0,0.5-0.1,0.7-0.1h0.4h0.6
						c0.8-0.1,1.5-0.1,2.3-0.2c1.6-0.1,3.4-0.2,5.3-0.4c7.8-0.6,12.6-0.1,16.1-0.4c3.6-0.3,6.1-1.3,10-4.8c4.7-4.2,11.4-6.9,17-8.7
						c2.8-0.9,5.4-1.5,7.2-1.9s2.9-0.6,2.9-0.6s-4.1,2.5-7.6,5.7c-3.6,3.2-6.6,7.2-6.1,10.3c0.6,3,4,5,7.7,6.3
						c3.7,1.4,7.9,2.1,10.1,2.8c0.1,0,0.2,0.1,0.4,0.1c-0.7,3.6-1.7,8.7-2.8,13.2s-2.1,8.5-2.8,10.5s0.4,3.1,2,4.7
						c1.6,1.6,3.8,3.8,5.3,7.4c1.4,3.4,1.4,13.1,0.6,16.4c-0.7,3.2-0.7,3.2-0.7,3.2s-1.1-3.4-2.7-6.5c-1.7-3.1-3.9-5.7-6.2-5.2
						c-4.6,0.9-8.1,3.3-9.2,5.1c-0.5,0.9-2.8,6.4-5.2,11.3c-0.6,1.2-1.2,2.4-1.8,3.7c-0.6,1.2-1.1,2.2-1.7,3.5
						c-1,2.5-1.9,4.7-2.4,6.2c-3.1,9.4-5.5,21.5-6.6,27.7c-2,10.4-2.7,17.2-2.7,17.2s-5,3.3-7.8,5.2c-2.8,1.9-6.7,6.1-6.7,6.1
						l0.9-16.1c0,0-0.2-3.9-2-5.1c-1.6-1-3.3-1.6-5.7-0.8c-2.4,0.8-5.8,2.9-5.8,2.9s1.6-8.5,8.5-12.4c5.2-2.9,4.4-1.5,7.6-5.8
						c3.2-4.3,7.4-20,9.7-25.5c0.1-0.2,0.2-0.4,0.3-0.6s0.2-0.5,0.3-0.6c0.2-0.3,0.5-0.7,0.8-1.1c0.6-0.9,1.4-2,2.3-3.3
						c1.8-2.7,4-6.5,6.2-11s4.5-9.7,6.3-14.5c1.9-4.8,3.3-9,4-11.1c0.8-2.3,2-5.9,3.5-10.5c-2.3-2-6-4.3-10.9-6.1
						c-4.9-1.9-11.1-3.2-17.2-3.3c-4.1-0.1-9.2-0.1-14.6,0.3c-2.7,0.2-5.5,0.4-8.3,0.7c-0.7,0.1-1.2,0.2-1.9,0.3l-1.8,0.3
						c-1.2,0.2-2.3,0.5-3.5,0.8c-9.3,2.3-18.4,6.6-23.8,14.8c-10.9,16.3-11.5,20.2-11.5,20.2L847.6,85.6z"/>
					<path id="XMLID_232_" class="st6" d="M834.6,84.4v17.8c0,0,0.8,0.4,9.4,2.1c7.6,1.5,16.4,3.4,30.9,1.4
						c2.6-0.4,9.6-2.3,13.4,2.2c5.8,6.8,16.8,6.1,16.8,6.1s-6.4-6.3-6.9-9.1s0.6-4.9,2.3-5.9c0.4-0.2,2-0.8,4.2-1.5
						c1.1-0.4,2.4-0.8,3.8-1.3c0.7-0.2,1.4-0.5,2.2-0.7l0.6-0.2l0.2-0.2c0.2-0.1,0.3-0.3,0.5-0.4c1.3-1.1,2.8-2.4,4.6-3.8
						s3.8-2.8,5.6-4.3c1.5-1.2,3.6-2.7,6.2-4.3c2.6-1.6,5.7-3.4,9.1-5c6.7-3.4,14.6-6.6,18.8-8.3c0.8,1.1,1.3,1.5,1.3,1.5l1.2-3.9
						c-2.4-1.8-5.3-3.7-8.6-5.5c0,0-1.7,0.7-4.2,1.6c-2.5,1-5.6,2.3-8.5,3.6c-2.9,1.2-5.6,2.5-7.5,3.5c-2,1-3.2,1.6-3.2,1.6
						s-1.2,0.7-2.5,1.2s-2.8,0.7-3.7-0.4s-1.4-2.1-2.2-3.2c-0.7-1.1-1.7-2.3-3.8-3.7c-1.4-0.9-2.6-1.6-3.7-2.1
						c-1-0.5-1.8-0.8-2.5-0.9c-1.3-0.3-1.8-0.2-1.8-0.2s5,10.4,3.6,13.9s-2.6,6.8-5.7,8c-2.3,0.9-20.3,7.1-31,8.9
						c-4.9,0.8-14.9,0.4-22.8-1.9C841.5,88.3,834.6,84.4,834.6,84.4z"/>
					<path id="XMLID_231_" class="st6" d="M978.2,58.8c0,0-0.8,3.4-1.6,6.7c-0.8,3.3-1.6,6.5-1.6,6.5s1.4,1.3,2.9,3.4
						s3.2,5.1,3.7,7.7c1.1,5.8,1.2,12.2,0.7,16.6c-0.2,2.2-0.9,4.6-1.7,6.9c-0.8,2.2-1.6,4.1-2.1,5.4c0,0-0.5-1.5-1-3.3
						c-0.5-1.8-1.2-3.7-1.5-4.6c-0.4-1-1.1-2.5-1.8-3.6c-0.7-1.2-1.2-2-1.2-2s0.2,1.4,0.6,3.7c0.3,2.3,0.7,5.5,1.1,8.9
						c0.1,1.6,0.3,3.2,0.4,4.8c0.1,1.4,0.2,2.8,0.2,4.1c0,2.6-0.3,4.8-0.9,6.1c-2.6,5.4-7.5,7.8-7.5,7.8s-5.9,2.4-8.4,4.3
						c-2.5,1.9-4.9,6.3-4.9,6.3s6.5-2.4,9.4-1.4s3.6,3.3,0.6,6.8c-3,3.4-6.4,8.6-11.2,12c-4.9,3.4-9.7,5.8-17.4,12
						c-10.3,8.3-11.7,16.9-11.7,16.9H941c0,0,1-3,5.7-6.9c4.5-3.8,7.7-5.8,9.9-6.7c2.2-0.9,8.6-2.5,11.2,0.9
						c2.7,3.3,1.4,8.7,1.4,8.7s4.3-4.9,5-10.7c0.5-4.1,0-13.1,2.2-16.5c2.2-3.4,7.2-11.8,8.9-17.3s4.5-15.9,6.5-17.2
						c2.1-1.3,7.5-3.7,12.1-1.6c4.6,2.1,8.2,8.7,8.2,8.7s-0.5-11-3.8-14.4c-0.8-0.8-2-1.9-3.3-3c-0.2-0.1-0.3-0.3-0.5-0.4l-0.3-0.2
						l-0.1-0.1l-0.1-0.2c-0.3-0.5-0.7-1.1-1-1.6c-0.7-1.1-1.4-2.1-2.2-3.1c-2.9-4.1-5.8-7.8-7.4-10.3c-1.6-2.6-3.6-9-5.5-15
						c-1.9-6.1-3.6-11.8-4.6-14.4c-1-2.7-2.3-5.4-3.3-7.4C979,60.1,978.2,58.8,978.2,58.8z"/>
				</g>
				<g id="XMLID_226_">
					<path id="XMLID_229_" class="st6" d="M939.8,200.4c0,0,2.3-2,7-3.1c6.1-1.5,16.4-1.5,16.4-1.5s-15.9,7.6-9.8,13
						c3.8,3.4,23.4,13.4,28.2,24.1c3.7,8.2,3.6,10.4,4.7,17.9c1.1,7.5-1.9,9.5,5.1,11.7c8.3,2.7,11.1,9,11.1,9s-9.9-3.8-16-1.4
						c-6,2.4-7.8,9.9-9.1,13.1c-1.3,3.3-4.3,9.4-5.7,11.3c-1.3,1.8,4.3,4.7,7.3,9.3c1.4,2.2,1.4,7.3,0.6,8.9
						c-0.7,1.7-0.7,1.7-0.7,1.7s-4.3-7.6-9-8.2c-4.6-0.5-8.1,0.1-9.2,1.2s-9,13.9-11,18.3c-3.1,6.9-5.5,15.6-6.6,20.1
						c-2,7.5-2.7,12.5-2.7,12.5s-5,2.4-7.8,3.8s-6.7,4.4-6.7,4.4l0.9-11.7c0,0-0.2-2.9-2-3.7c-1.6-0.7-3.3-1.2-5.7-0.6
						s-5.8,2.1-5.8,2.1s1.6-6.2,8.5-9c5.2-2.1,4.4-1.1,7.6-4.2c3.2-3.1,7.4-14.5,9.7-18.6s17.6-27.5,20.4-32.1
						c2.8-4.6,12.7-17.9,12.9-27.9c0.3-10-0.8-28.2-17.1-36.2s-20.2-8.4-20.2-8.4L939.8,200.4z"/>
					<path id="XMLID_228_" class="st6" d="M941,190.9h-17.8c0,0-0.4,0.6-2.1,6.9c-1.5,5.5-3.4,11.9-1.4,22.5c0.4,1.9,2.3,7-2.2,9.8
						c-6.8,4.2-6.1,12.2-6.1,12.2s6.3-4.7,9.1-5s4.9,0.5,5.9,1.7s6.5,15.7,12.5,22.5c6,6.8,18.9,24.2,18.9,24.2l6.7-11.9L954,260.1
						c0,0-2.9-3.2-0.8-5.2c2.2-2,4.1-2.3,6.9-5.6c3.7-4.3,3.2-5.8,3.2-5.8s-10.4,3.6-13.9,2.6s-6.8-1.9-8-4.1
						c-0.9-1.7-7.1-14.8-8.9-22.6c-0.8-3.6-0.4-10.9,1.9-16.6C937.1,195.9,941,190.9,941,190.9z"/>
					<path id="XMLID_227_" class="st6" d="M978.2,289.8l-3.3,6.1c0,0,5.7,5.2,6.6,8.1c1.1,3.3,1.2,6.5,0.7,8.8
						c-0.4,2.2-2.8,4.9-3.8,6.3c0,0-1.8-3.4-2.5-4.5c-0.7-1.2-3-3.6-3-3.6s3.9,14.1,1.3,18.1c-2.6,3.9-7.5,5.7-7.5,5.7
						s-5.9,1.7-8.4,3.1s-4.9,4.6-4.9,4.6s6.5-1.8,9.4-1c2.9,0.7,3.6,2.4,0.6,5c-3,2.5-6.4,6.3-11.2,8.7c-4.9,2.4-9.7,4.3-17.4,8.8
						c-10.3,6.1-11.7,12.3-11.7,12.3H941c0,0,1-2.2,5.7-5.1c4.5-2.8,7.7-4.2,9.9-4.9c2.2-0.6,8.6-1.8,11.2,0.6s1.4,6.3,1.4,6.3
						s4.3-3.5,5-7.8c0.5-3,0-9.5,2.2-12s7.2-8.6,8.9-12.6s4.5-11.6,6.5-12.5c2.1-0.9,7.5-2.7,12.1-1.2c4.6,1.5,8.2,6.3,8.2,6.3
						s-0.5-8-3.8-10.5s-11.7-7-14.9-9.5c-3.2-2.6-8.1-12.6-10.1-15.9C981.3,294.1,978.2,289.8,978.2,289.8z"/>
				</g>
				<g id="XMLID_222_">
					<path id="XMLID_225_" class="st6" d="M939.8,389.1c0,0,2.3-2.7,7-4.3c6.1-2.1,16.4-2.1,16.4-2.1s-15.9,10.4-9.8,17.9
						c3.8,4.7,23.4,18.4,28.2,33c1.9,5.6,2.8,9.2,3.3,12.7c0.3,1.7,0.5,3.4,0.7,5.3c0,0.2,0.1,0.5,0.1,0.7v0.4v0.6
						c0.1,0.8,0.1,1.5,0.2,2.3c0.1,1.6,0.2,3.4,0.4,5.3c0.6,7.8,0.1,12.6,0.4,16.1c0.3,3.6,1.3,6.1,4.8,10c4.2,4.7,6.9,11.4,8.7,17
						c0.9,2.8,1.5,5.4,1.9,7.2s0.6,2.9,0.6,2.9s-2.5-4.1-5.7-7.6c-3.2-3.6-7.2-6.6-10.3-6.1c-3,0.6-5,4-6.3,7.7
						c-1.4,3.7-2.1,7.9-2.8,10.1c0,0.1-0.1,0.2-0.1,0.4c-3.6-0.7-8.7-1.7-13.2-2.8c-4.5-1.1-8.5-2.1-10.5-2.8c-2-0.7-3.1,0.4-4.7,2
						c-1.6,1.6-3.8,3.8-7.4,5.3c-3.4,1.4-13.1,1.4-16.4,0.6c-3.2-0.7-3.2-0.7-3.2-0.7s3.4-1.1,6.5-2.7c3.1-1.7,5.7-3.9,5.2-6.2
						c-0.9-4.6-3.3-8.1-5.1-9.2c-0.9-0.5-6.4-2.8-11.3-5.2c-1.2-0.6-2.4-1.2-3.7-1.8c-1.2-0.6-2.2-1.1-3.5-1.7
						c-2.5-1-4.7-1.9-6.2-2.4c-9.4-3.1-21.5-5.5-27.7-6.6c-10.4-2-17.2-2.7-17.2-2.7s-3.3-5-5.2-7.8s-6.1-6.7-6.1-6.7l16.1,0.9
						c0,0,3.9-0.2,5.1-2c1-1.6,1.6-3.3,0.8-5.7c-0.8-2.4-2.9-5.8-2.9-5.8s8.5,1.6,12.4,8.5c2.9,5.2,1.5,4.4,5.8,7.6
						c4.2,3.2,20,7.4,25.5,9.7c0.2,0.1,0.4,0.2,0.6,0.3c0.2,0.1,0.5,0.2,0.6,0.3c0.3,0.2,0.7,0.5,1.1,0.8c0.9,0.6,2,1.4,3.3,2.3
						c2.7,1.8,6.5,4,11,6.2s9.7,4.5,14.5,6.3c4.8,1.9,9,3.3,11.1,4c2.3,0.8,5.9,2,10.5,3.5c2-2.3,4.3-6,6.1-10.9
						c1.9-4.9,3.2-11.1,3.3-17.2c0.1-4.1,0.1-9.2-0.3-14.6c-0.2-2.7-0.4-5.5-0.7-8.3c-0.1-0.7-0.2-1.2-0.3-1.9l-0.3-1.8
						c-0.2-1.2-0.5-2.3-0.8-3.5c-2.3-9.3-6.6-18.4-14.8-23.8c-16.3-10.9-20.2-11.5-20.2-11.5L939.8,389.1z"/>
					<path id="XMLID_224_" class="st6" d="M941,376h-17.8c0,0-0.4,0.8-2.1,9.4c-1.5,7.6-3.4,16.4-1.4,30.9c0.4,2.6,2.3,9.6-2.2,13.4
						c-6.8,5.8-6.1,16.8-6.1,16.8s6.3-6.4,9.1-6.9s4.9,0.6,5.9,2.3c0.2,0.4,0.8,2,1.5,4.2c0.4,1.1,0.8,2.4,1.3,3.8
						c0.2,0.7,0.5,1.4,0.7,2.2l0.2,0.6l0.2,0.2c0.1,0.2,0.3,0.3,0.4,0.5c1.1,1.3,2.4,2.8,3.8,4.6c1.4,1.8,2.8,3.8,4.3,5.6
						c1.2,1.5,2.7,3.6,4.3,6.2s3.4,5.7,5,9.1c3.4,6.7,6.6,14.6,8.3,18.8c-1.1,0.8-1.5,1.3-1.5,1.3l3.9,1.2c1.8-2.4,3.7-5.3,5.5-8.6
						c0,0-0.7-1.7-1.6-4.2c-1-2.5-2.3-5.6-3.6-8.5s-2.6-5.7-3.6-7.6c-1-2-1.6-3.2-1.6-3.2s-0.7-1.2-1.2-2.5s-0.7-2.8,0.4-3.7
						c1.1-0.9,2.1-1.4,3.2-2.2c1.1-0.7,2.3-1.7,3.7-3.8c0.9-1.4,1.6-2.6,2.1-3.7c0.5-1,0.8-1.8,0.9-2.5c0.3-1.3,0.2-1.8,0.2-1.8
						s-10.4,5-13.9,3.6s-6.8-2.6-8-5.7c-0.9-2.3-7.1-20.3-8.9-31c-0.8-4.9-0.4-14.9,1.9-22.8C937.1,382.9,941,376,941,376z"/>
					<path id="XMLID_223_" class="st6" d="M966.6,519.7c0,0-3.4-0.8-6.7-1.6c-3.2-0.8-6.5-1.6-6.5-1.6s-1.3,1.4-3.4,2.9
						c-2.1,1.5-5.1,3.2-7.7,3.7c-5.8,1.1-12.2,1.2-16.6,0.7c-2.2-0.2-4.6-0.9-6.9-1.7c-2.2-0.8-4.1-1.6-5.4-2.1c0,0,1.5-0.5,3.3-1
						s3.7-1.2,4.6-1.5c1-0.4,2.5-1.1,3.6-1.8c1.2-0.7,2-1.2,2-1.2s-1.4,0.2-3.7,0.6c-2.3,0.3-5.5,0.7-8.9,1.1
						c-1.6,0.1-3.2,0.3-4.8,0.4c-1.4,0.1-2.8,0.2-4.1,0.2c-2.6,0-4.8-0.3-6.1-0.9c-5.4-2.6-7.8-7.5-7.8-7.5s-2.4-5.9-4.3-8.4
						c-1.9-2.5-6.3-4.9-6.3-4.9s2.4,6.5,1.4,9.4s-3.3,3.6-6.8,0.6c-3.4-3-8.6-6.4-12-11.2c-3.4-4.9-5.8-9.7-12-17.4
						c-8.3-10.3-16.9-11.7-16.9-11.7v17.8c0,0,3,1,6.9,5.7c3.8,4.5,5.8,7.7,6.7,9.9c0.9,2.2,2.5,8.6-0.9,11.2s-8.7,1.4-8.7,1.4
						s4.9,4.3,10.7,5c4.1,0.5,13.1,0,16.5,2.2s11.8,7.2,17.3,8.9c5.5,1.7,15.9,4.5,17.2,6.5c1.3,2.1,3.7,7.5,1.6,12.1
						c-2.1,4.6-8.7,8.2-8.7,8.2s11-0.5,14.4-3.8c0.8-0.8,1.9-2,3-3.3c0.1-0.2,0.3-0.3,0.4-0.5l0.2-0.3l0.1-0.1l0.2-0.1
						c0.5-0.3,1.1-0.7,1.6-1c1.1-0.7,2.1-1.4,3.1-2.2c4.1-2.9,7.8-5.8,10.3-7.4c2.6-1.6,9-3.6,15-5.5c6.1-1.9,11.7-3.6,14.4-4.6
						s5.4-2.3,7.4-3.3C965.3,520.5,966.6,519.7,966.6,519.7z"/>
				</g>
				<g id="XMLID_218_">
					<path id="XMLID_221_" class="st6" d="M824.1,481.3c0,0,2.2,2.3,3.4,7c1.7,6.1,1.7,16.4,1.7,16.4s-8.3-15.9-14.4-9.8
						c-3.7,3.8-14.7,23.4-26.5,28.2c-9.1,3.7-11.5,3.6-19.8,4.7c-8.3,1.1-10.4-1.9-12.9,5.1c-2.9,8.3-9.9,11.1-9.9,11.1
						s4.2-9.9,1.6-16c-2.6-6-10.9-7.8-14.4-9.1c-3.6-1.3-10.4-4.3-12.4-5.7c-2-1.3-5.2,4.3-10.3,7.3c-2.4,1.4-8,1.4-9.9,0.6
						c-1.9-0.7-1.9-0.7-1.9-0.7s8.4-4.3,9-9c0.6-4.6-0.1-8.1-1.3-9.2s-15.3-9-20.1-11c-7.6-3.1-17.3-5.5-22.2-6.6
						c-8.3-2-13.8-2.7-13.8-2.7s-2.6-5-4.2-7.8c-1.6-2.8-4.9-6.7-4.9-6.7l12.9,0.9c0,0,3.2-0.2,4.1-2c0.8-1.6,1.3-3.3,0.7-5.7
						c-0.7-2.4-2.4-5.8-2.4-5.8s6.9,1.6,9.9,8.5c2.3,5.2,1.2,4.4,4.6,7.6c3.4,3.2,16.1,7.4,20.5,9.7c4.5,2.3,30.3,17.6,35.4,20.4
						c5,2.8,19.8,12.7,30.8,12.9c11,0.3,31.2-0.8,39.9-17.1s9.2-20.2,9.2-20.2L824.1,481.3z"/>
					<path id="XMLID_220_" class="st6" d="M834.6,482.5v-17.8c0,0-0.6-0.4-7.6-2.1c-6.1-1.5-13.2-3.4-24.9-1.4
						c-2.1,0.4-7.7,2.3-10.8-2.2c-4.6-6.8-13.5-6.1-13.5-6.1s5.2,6.3,5.5,9.1s-0.5,4.9-1.8,5.9s-17.4,6.5-24.8,12.5
						c-7.5,6-26.7,18.9-26.7,18.9l13.2,6.7l15.1-10.4c0,0,3.6-2.9,5.8-0.8c2.2,2.2,2.6,4.1,6.2,6.9c4.8,3.7,6.4,3.2,6.4,3.2
						s-4-10.4-2.9-13.9s2.1-6.8,4.6-8c1.8-0.9,16.3-7.1,24.9-8.9c3.9-0.8,12-0.4,18.3,1.9C829,478.6,834.6,482.5,834.6,482.5z"/>
					<path id="XMLID_219_" class="st6" d="M725.4,519.7l-6.7-3.3c0,0-5.7,5.7-8.9,6.6c-3.6,1.1-7.2,1.2-9.7,0.7
						c-2.4-0.4-5.4-2.8-6.9-3.8c0,0,3.8-1.8,5-2.5c1.3-0.7,4-3,4-3s-15.6,3.9-19.9,1.3c-4.3-2.6-6.3-7.5-6.3-7.5s-1.9-5.9-3.4-8.4
						s-5-4.9-5-4.9s1.9,6.5,1.1,9.4c-0.8,2.9-2.7,3.6-5.5,0.6c-2.8-3-6.9-6.4-9.6-11.2c-2.7-4.9-4.7-9.7-9.7-17.4
						c-6.7-10.3-13.6-11.7-13.6-11.7v17.8c0,0,2.4,1,5.6,5.7c3,4.5,4.7,7.7,5.4,9.9c0.7,2.2,2,8.6-0.7,11.2c-2.7,2.7-7,1.4-7,1.4
						s3.9,4.3,8.6,5c3.3,0.5,10.5,0,13.3,2.2c2.8,2.2,9.5,7.2,13.9,8.9c4.5,1.7,12.8,4.5,13.8,6.5c1,2.1,2.9,7.5,1.3,12.1
						c-1.7,4.6-7,8.2-7,8.2s8.9-0.5,11.6-3.8c2.7-3.3,7.7-11.7,10.5-14.9c2.8-3.2,13.9-8.1,17.6-10.1
						C720.7,522.8,725.4,519.7,725.4,519.7z"/>
				</g>
				<g id="XMLID_214_">
					<path id="XMLID_217_" class="st6" d="M619.7,481.3c0,0,2.2,2.3,3.4,7c1.7,6.1,1.7,16.4,1.7,16.4s-8.3-15.9-14.4-9.8
						c-3.7,3.8-14.7,23.4-26.5,28.2c-9.1,3.7-11.5,3.6-19.8,4.7c-8.3,1.1-10.4-1.9-12.9,5.1c-2.9,8.3-9.9,11.1-9.9,11.1
						s4.2-9.9,1.6-16c-2.6-6-10.9-7.8-14.4-9.1c-3.6-1.3-10.4-4.3-12.4-5.7c-2-1.3-5.2,4.3-10.3,7.3c-2.4,1.4-8,1.4-9.9,0.6
						c-1.9-0.7-1.9-0.7-1.9-0.7s8.4-4.3,9-9c0.6-4.6-0.1-8.1-1.3-9.2c-1.2-1.1-15.3-9-20.1-11c-7.6-3.1-17.3-5.5-22.2-6.6
						c-8.3-2-13.8-2.7-13.8-2.7s-2.6-5-4.2-7.8s-4.9-6.7-4.9-6.7l12.9,0.9c0,0,3.2-0.2,4.1-2c0.8-1.6,1.3-3.3,0.7-5.7
						c-0.7-2.4-2.4-5.8-2.4-5.8s6.9,1.6,9.9,8.5c2.3,5.2,1.2,4.4,4.6,7.6s16.1,7.4,20.5,9.7s30.3,17.6,35.4,20.4
						c5.1,2.8,19.8,12.7,30.8,12.9c11,0.3,31.2-0.8,39.9-17.1s9.2-20.2,9.2-20.2L619.7,481.3z"/>
					<path id="XMLID_216_" class="st6" d="M630.2,482.5v-17.8c0,0-0.6-0.4-7.6-2.1c-6.1-1.5-13.2-3.4-24.9-1.4
						c-2.1,0.4-7.7,2.3-10.8-2.2c-4.6-6.8-13.5-6.1-13.5-6.1s5.2,6.3,5.5,9.1s-0.5,4.9-1.8,5.9s-17.4,6.5-24.8,12.5
						c-7.5,6-26.7,18.9-26.7,18.9l13.2,6.7l15.1-10.4c0,0,3.6-2.9,5.8-0.8c2.2,2.1,2.6,4.1,6.2,6.9c4.8,3.7,6.4,3.2,6.4,3.2
						s-4-10.4-2.9-13.9c1.1-3.5,2.1-6.8,4.6-8c1.8-0.9,16.3-7.1,24.9-8.9c3.9-0.8,12-0.4,18.3,1.9
						C624.7,478.6,630.2,482.5,630.2,482.5z"/>
					<path id="XMLID_215_" class="st6" d="M521.1,519.7l-6.7-3.3c0,0-5.7,5.7-8.9,6.6c-3.6,1.1-7.2,1.2-9.7,0.7
						c-2.4-0.4-5.4-2.8-6.9-3.8c0,0,3.8-1.8,5-2.5c1.3-0.7,4-3,4-3s-15.6,3.9-19.9,1.3s-6.3-7.5-6.3-7.5s-1.9-5.9-3.4-8.4
						s-5-4.9-5-4.9s1.9,6.5,1.1,9.4s-2.7,3.6-5.5,0.6s-6.9-6.4-9.6-11.2c-2.7-4.9-4.7-9.7-9.7-17.4c-6.7-10.3-13.6-11.7-13.6-11.7
						v17.8c0,0,2.4,1,5.6,5.7c3,4.5,4.7,7.7,5.4,9.9c0.7,2.2,2,8.6-0.7,11.2s-7,1.4-7,1.4s3.9,4.3,8.6,5c3.3,0.5,10.5,0,13.3,2.2
						c2.8,2.2,9.5,7.2,13.9,8.9s12.8,4.5,13.8,6.5c1,2.1,2.9,7.5,1.3,12.1c-1.7,4.6-7,8.2-7,8.2s8.9-0.5,11.6-3.8
						c2.7-3.3,7.7-11.7,10.5-14.9c2.8-3.2,13.9-8.1,17.6-10.1C516.4,522.8,521.1,519.7,521.1,519.7z"/>
				</g>
				<g id="XMLID_210_">
					<path id="XMLID_213_" class="st6" d="M412.8,481.3c0,0,2.7,2.3,4.3,7c2.1,6.1,2.1,16.4,2.1,16.4s-10.4-15.9-17.9-9.8
						c-4.7,3.8-18.4,23.4-33,28.2c-5.6,1.9-9.2,2.8-12.7,3.3c-1.7,0.3-3.4,0.5-5.3,0.7c-0.2,0-0.5,0.1-0.7,0.1h-0.4h-0.6
						c-0.8,0.1-1.5,0.1-2.3,0.2c-1.6,0.1-3.4,0.2-5.3,0.4c-7.8,0.6-12.6,0.1-16.1,0.4c-3.6,0.3-6.1,1.3-10,4.8
						c-4.7,4.2-11.4,6.9-17,8.7c-2.8,0.9-5.4,1.5-7.2,1.9c-1.8,0.4-2.9,0.6-2.9,0.6s4.1-2.5,7.6-5.7c3.6-3.2,6.6-7.2,6.1-10.3
						c-0.6-3-4-5-7.7-6.3c-3.7-1.4-7.9-2.1-10.1-2.8c-0.1,0-0.2-0.1-0.4-0.1c0.7-3.6,1.7-8.7,2.8-13.2s2.1-8.5,2.8-10.5
						c0.7-2-0.4-3.1-2-4.7c-1.6-1.6-3.8-3.8-5.3-7.4c-1.4-3.4-1.4-13.1-0.6-16.4c0.7-3.2,0.7-3.2,0.7-3.2s1.1,3.4,2.7,6.5
						c1.7,3.1,3.9,5.7,6.2,5.2c4.6-0.9,8.1-3.3,9.2-5.1c0.5-0.9,2.8-6.4,5.2-11.3c0.6-1.2,1.2-2.4,1.8-3.7c0.6-1.2,1.1-2.2,1.7-3.5
						c1-2.5,1.9-4.7,2.4-6.2c3.1-9.4,5.5-21.5,6.6-27.7c2-10.4,2.7-17.2,2.7-17.2s5-3.3,7.8-5.2c2.8-2,6.7-6.1,6.7-6.1l-0.9,16.1
						c0,0,0.2,3.9,2,5.1c1.6,1,3.3,1.6,5.7,0.8c2.4-0.8,5.8-2.9,5.8-2.9s-1.6,8.5-8.5,12.4c-5.2,2.9-4.4,1.5-7.6,5.8
						s-7.4,20-9.7,25.5c-0.1,0.2-0.2,0.4-0.3,0.6c-0.1,0.2-0.2,0.5-0.3,0.6c-0.2,0.3-0.5,0.7-0.8,1.1c-0.6,0.9-1.4,2-2.3,3.3
						c-1.8,2.7-4,6.5-6.2,11c-2.2,4.5-4.5,9.7-6.3,14.5c-1.9,4.8-3.3,9-4,11.1c-0.8,2.3-2,5.9-3.5,10.5c2.3,2,6,4.3,10.9,6.1
						c4.9,1.9,11.1,3.2,17.2,3.3c4.1,0.1,9.2,0.1,14.6-0.3c2.7-0.2,5.5-0.4,8.3-0.7c0.7-0.1,1.2-0.2,1.9-0.3l1.8-0.3
						c1.2-0.2,2.3-0.5,3.5-0.8c9.3-2.3,18.4-6.6,23.8-14.8c10.9-16.3,11.5-20.2,11.5-20.2L412.8,481.3z"/>
					<path id="XMLID_212_" class="st6" d="M425.9,482.5v-17.8c0,0-0.8-0.4-9.4-2.1c-7.6-1.5-16.4-3.4-30.9-1.4
						c-2.6,0.4-9.6,2.3-13.4-2.2c-5.8-6.8-16.8-6.1-16.8-6.1s6.4,6.3,6.9,9.1c0.5,2.8-0.6,4.9-2.3,5.9c-0.4,0.2-2,0.8-4.2,1.5
						c-1.1,0.4-2.4,0.8-3.8,1.3c-0.7,0.2-1.4,0.5-2.2,0.7l-0.6,0.2l-0.2,0.2c-0.2,0.1-0.3,0.3-0.5,0.4c-1.3,1.1-2.8,2.4-4.6,3.8
						s-3.8,2.8-5.6,4.3c-1.5,1.2-3.6,2.7-6.2,4.3c-2.6,1.6-5.7,3.4-9.1,5c-6.7,3.4-14.6,6.6-18.8,8.3c-0.8-1.1-1.3-1.5-1.3-1.5
						l-1.2,3.9c2.4,1.8,5.3,3.7,8.6,5.5c0,0,1.7-0.7,4.2-1.6c2.5-1,5.6-2.3,8.5-3.6c2.9-1.3,5.7-2.6,7.6-3.6c2-1,3.2-1.6,3.2-1.6
						s1.2-0.7,2.5-1.2s2.8-0.7,3.7,0.4c0.9,1.1,1.4,2.1,2.2,3.2c0.7,1.1,1.7,2.3,3.8,3.7c1.4,0.9,2.6,1.6,3.7,2.1
						c1,0.5,1.8,0.8,2.5,0.9c1.3,0.3,1.8,0.2,1.8,0.2s-5-10.4-3.6-13.9c1.4-3.5,2.6-6.8,5.7-8c2.3-0.9,20.3-7.1,31-8.9
						c4.9-0.8,14.9-0.4,22.8,1.9C419,478.6,425.9,482.5,425.9,482.5z"/>
					<path id="XMLID_211_" class="st6" d="M282.3,508.1c0,0,0.8-3.4,1.6-6.7c0.8-3.2,1.6-6.5,1.6-6.5s-1.4-1.3-2.9-3.4
						s-3.2-5.1-3.7-7.7c-1.1-5.8-1.2-12.2-0.7-16.6c0.2-2.2,0.9-4.6,1.7-6.9c0.8-2.2,1.6-4.1,2.1-5.4c0,0,0.5,1.5,1,3.3
						s1.2,3.7,1.5,4.6c0.4,1,1.1,2.5,1.8,3.6c0.7,1.2,1.2,2,1.2,2s-0.2-1.4-0.6-3.7c-0.3-2.3-0.7-5.5-1.1-8.9
						c-0.1-1.6-0.3-3.2-0.4-4.8c-0.1-1.4-0.2-2.8-0.2-4.1c0-2.6,0.3-4.8,0.9-6.1c2.6-5.4,7.5-7.8,7.5-7.8s5.9-2.4,8.4-4.3
						s4.9-6.3,4.9-6.3s-6.5,2.4-9.4,1.4c-2.9-1-3.6-3.3-0.6-6.8c3-3.4,6.4-8.6,11.2-12c4.9-3.4,9.7-5.8,17.4-12
						c10.3-8.3,11.7-16.9,11.7-16.9h-17.8c0,0-1,3-5.7,6.9c-4.5,3.8-7.7,5.8-9.9,6.7c-2.2,0.9-8.6,2.5-11.2-0.9s-1.4-8.7-1.4-8.7
						s-4.3,4.9-5,10.7c-0.5,4.1,0,13.1-2.2,16.5s-7.2,11.8-8.9,17.3c-1.7,5.6-4.5,15.9-6.5,17.2c-2.1,1.3-7.5,3.7-12.1,1.6
						s-8.2-8.7-8.2-8.7s0.5,11,3.8,14.4c0.8,0.8,2,1.9,3.3,3c0.2,0.1,0.3,0.3,0.5,0.4l0.3,0.2l0.1,0.1l0.1,0.2
						c0.3,0.5,0.7,1.1,1,1.6c0.7,1.1,1.4,2.1,2.2,3.1c2.9,4.1,5.8,7.8,7.4,10.3c1.6,2.6,3.6,9,5.5,15c1.9,6.1,3.6,11.7,4.6,14.4
						c1,2.7,2.3,5.4,3.3,7.4C281.5,506.8,282.3,508.1,282.3,508.1z"/>
				</g>
				<g id="XMLID_206_">
					<path id="XMLID_209_" class="st6" d="M320.6,366.5c0,0-2.3,2-7,3.1c-6.1,1.5-16.4,1.5-16.4,1.5s15.9-7.6,9.8-13
						c-3.8-3.4-23.4-13.4-28.2-24.1c-3.7-8.2-3.6-10.4-4.7-17.9s1.9-9.5-5.1-11.7c-8.3-2.7-11.1-9-11.1-9s9.9,3.8,16,1.4
						c6.1-2.4,7.8-9.9,9.1-13.1c1.3-3.3,4.3-9.4,5.7-11.3c1.3-1.8-4.3-4.7-7.3-9.3c-1.4-2.2-1.4-7.3-0.6-8.9
						c0.7-1.7,0.7-1.7,0.7-1.7s4.3,7.6,9,8.2c4.6,0.5,8.1-0.1,9.2-1.2c1.1-1.1,9-13.9,11-18.3c3.1-6.9,5.5-15.6,6.6-20.1
						c2-7.5,2.7-12.5,2.7-12.5s5-2.4,7.8-3.8c2.8-1.4,6.7-4.4,6.7-4.4l-0.9,11.7c0,0,0.2,2.9,2,3.7c1.6,0.7,3.3,1.2,5.7,0.6
						c2.4-0.6,5.8-2.1,5.8-2.1s-1.6,6.2-8.5,9c-5.2,2.1-4.4,1.1-7.6,4.2c-3.2,3.1-7.4,14.5-9.7,18.6c-2.3,4.1-17.6,27.5-20.4,32.1
						c-2.8,4.6-12.7,17.9-12.9,27.9c-0.3,10,0.8,28.2,17.1,36.2c16.3,8,20.2,8.4,20.2,8.4L320.6,366.5z"/>
					<path id="XMLID_208_" class="st6" d="M319.5,376h17.8c0,0,0.4-0.6,2.1-6.9c1.5-5.5,3.4-11.9,1.4-22.5c-0.4-1.9-2.3-7,2.2-9.8
						c6.8-4.2,6.1-12.2,6.1-12.2s-6.3,4.7-9.1,5c-2.8,0.3-4.9-0.5-5.9-1.7s-6.5-15.7-12.5-22.5s-18.9-24.2-18.9-24.2l-6.7,11.9
						l10.4,13.6c0,0,2.9,3.2,0.8,5.2c-2.2,2-4.1,2.3-6.9,5.6c-3.7,4.3-3.2,5.8-3.2,5.8s10.4-3.6,13.9-2.6s6.8,1.9,8,4.1
						c0.9,1.7,7.1,14.8,8.9,22.6c0.8,3.6,0.4,10.9-1.9,16.6C323.3,371,319.5,376,319.5,376z"/>
					<path id="XMLID_207_" class="st6" d="M282.3,277.1l3.3-6.1c0,0-5.7-5.2-6.6-8.1c-1.1-3.3-1.2-6.5-0.7-8.8
						c0.4-2.2,2.8-4.9,3.8-6.3c0,0,1.8,3.4,2.5,4.5c0.7,1.2,3,3.6,3,3.6s-3.9-14.1-1.3-18.1c2.6-3.9,7.5-5.7,7.5-5.7
						s5.9-1.7,8.4-3.1c2.5-1.4,4.9-4.6,4.9-4.6s-6.5,1.8-9.4,1c-2.9-0.7-3.6-2.4-0.6-5c3-2.5,6.4-6.3,11.2-8.7
						c4.9-2.4,9.7-4.3,17.4-8.8c10.3-6.1,11.7-12.3,11.7-12.3h-17.8c0,0-1,2.2-5.7,5.1c-4.5,2.8-7.7,4.2-9.9,4.9
						c-2.2,0.6-8.6,1.8-11.2-0.6s-1.4-6.3-1.4-6.3s-4.3,3.5-5,7.8c-0.5,3,0,9.5-2.2,12s-7.2,8.6-8.9,12.6
						c-1.7,4.1-4.5,11.6-6.5,12.5c-2.1,0.9-7.5,2.7-12.1,1.2s-8.2-6.3-8.2-6.3s0.5,8,3.8,10.5s11.7,7,14.9,9.5s8.1,12.6,10.1,15.9
						C279.2,272.8,282.3,277.1,282.3,277.1z"/>
				</g>
				<g id="XMLID_202_">
					<path id="XMLID_205_" class="st6" d="M320.6,177.8c0,0-2.3,2.7-7,4.3c-6.1,2.1-16.4,2.1-16.4,2.1s15.9-10.4,9.8-17.9
						c-3.8-4.7-23.4-18.4-28.2-33c-1.9-5.6-2.8-9.2-3.3-12.7c-0.3-1.7-0.5-3.4-0.7-5.3c0-0.2-0.1-0.5-0.1-0.7v-0.4v-0.6
						c-0.1-0.8-0.1-1.5-0.2-2.3c-0.1-1.6-0.2-3.4-0.4-5.3c-0.6-7.8-0.1-12.6-0.4-16.1c-0.3-3.6-1.3-6.1-4.8-10
						c-4.2-4.7-6.9-11.4-8.7-17c-0.9-2.8-1.5-5.4-1.9-7.2c-0.4-1.8-0.6-2.9-0.6-2.9s2.5,4.1,5.7,7.6c3.2,3.6,7.2,6.6,10.3,6.1
						c3-0.6,5-4,6.3-7.7c1.4-3.7,2.1-7.9,2.8-10.1c0-0.1,0.1-0.2,0.1-0.4c3.6,0.7,8.7,1.7,13.2,2.8c4.5,1.1,8.5,2.1,10.5,2.8
						c2,0.7,3.1-0.4,4.7-2c1.6-1.6,3.8-3.8,7.4-5.3c3.4-1.4,13.1-1.4,16.4-0.6c3.2,0.7,3.2,0.7,3.2,0.7s-3.4,1.1-6.5,2.7
						c-3.1,1.7-5.7,3.9-5.2,6.2c0.9,4.6,3.3,8.1,5.1,9.2c0.9,0.5,6.4,2.8,11.3,5.2c1.2,0.6,2.4,1.2,3.7,1.8c1.2,0.6,2.2,1.1,3.5,1.7
						c2.5,1,4.7,1.9,6.2,2.4c9.4,3.1,21.5,5.5,27.7,6.6c10.4,2,17.2,2.7,17.2,2.7s3.3,5,5.2,7.8c1.9,2.8,6.1,6.7,6.1,6.7l-16.1-0.9
						c0,0-3.9,0.2-5.1,2c-1,1.6-1.6,3.3-0.8,5.7c0.8,2.4,2.9,5.8,2.9,5.8s-8.5-1.6-12.4-8.5c-2.9-5.2-1.5-4.4-5.8-7.6
						c-4.2-3.2-20-7.4-25.5-9.7c-0.2-0.1-0.4-0.2-0.6-0.3c-0.2-0.1-0.5-0.2-0.6-0.3c-0.3-0.2-0.7-0.5-1.1-0.8
						c-0.9-0.6-2-1.4-3.3-2.3c-2.7-1.8-6.5-4-11-6.2s-9.7-4.5-14.5-6.3c-4.8-1.9-9-3.3-11.1-4c-2.3-0.8-5.9-2-10.5-3.5
						c-2,2.3-4.3,6-6.1,10.9c-1.9,4.9-3.2,11.1-3.3,17.2c-0.1,4.1-0.1,9.2,0.3,14.6c0.2,2.7,0.4,5.5,0.7,8.3
						c0.1,0.7,0.2,1.2,0.3,1.9l0.3,1.8c0.2,1.2,0.5,2.3,0.8,3.5c2.3,9.3,6.6,18.4,14.8,23.8c16.3,10.9,20.2,11.5,20.2,11.5
						L320.6,177.8z"/>
					<path id="XMLID_204_" class="st6" d="M319.5,190.9h17.8c0,0,0.4-0.8,2.1-9.4c1.5-7.6,3.4-16.4,1.4-30.9
						c-0.4-2.6-2.3-9.6,2.2-13.4c6.8-5.8,6.1-16.8,6.1-16.8s-6.3,6.4-9.1,6.9s-4.9-0.6-5.9-2.3c-0.2-0.4-0.8-2-1.5-4.2
						c-0.4-1.1-0.8-2.4-1.3-3.8c-0.2-0.7-0.5-1.4-0.7-2.2l-0.2-0.6l-0.2-0.2c-0.1-0.2-0.3-0.3-0.4-0.5c-1.1-1.3-2.4-2.8-3.8-4.6
						c-1.4-1.8-2.8-3.8-4.3-5.6c-1.2-1.5-2.7-3.6-4.3-6.2c-1.6-2.6-3.4-5.7-5-9.1c-3.4-6.7-6.6-14.6-8.3-18.8
						c1.1-0.8,1.5-1.3,1.5-1.3l-3.9-1.2c-1.8,2.4-3.7,5.3-5.5,8.6c0,0,0.7,1.7,1.6,4.2c1,2.5,2.3,5.6,3.6,8.5
						c1.3,2.9,2.6,5.7,3.6,7.6c1,2,1.6,3.2,1.6,3.2s0.7,1.2,1.2,2.5c0.5,1.3,0.7,2.8-0.4,3.7c-1.1,0.9-2.1,1.4-3.2,2.2
						c-1.1,0.7-2.3,1.7-3.7,3.8c-0.9,1.4-1.6,2.6-2.1,3.7c-0.5,1-0.8,1.8-0.9,2.5c-0.3,1.3-0.2,1.8-0.2,1.8s10.4-5,13.9-3.6
						c3.5,1.4,6.8,2.6,8,5.7c0.9,2.3,7.1,20.3,8.9,31c0.8,4.9,0.4,14.9-1.9,22.8C323.3,184,319.5,190.9,319.5,190.9z"/>
					<path id="XMLID_203_" class="st6" d="M293.9,47.2c0,0,3.4,0.8,6.7,1.6c3.2,0.8,6.5,1.6,6.5,1.6s1.3-1.4,3.4-2.9
						s5.1-3.2,7.7-3.7c5.8-1.1,12.2-1.2,16.6-0.7c2.2,0.2,4.6,0.9,6.9,1.7c2.2,0.8,4.1,1.6,5.4,2.1c0,0-1.5,0.5-3.3,1
						s-3.7,1.2-4.6,1.5c-1,0.4-2.5,1.1-3.6,1.8c-1.2,0.7-2,1.2-2,1.2s1.4-0.2,3.7-0.6c2.3-0.3,5.5-0.7,8.9-1.1
						c1.6-0.1,3.2-0.3,4.8-0.4c1.4-0.1,2.8-0.2,4.1-0.2c2.6,0,4.8,0.3,6.1,0.9c5.4,2.6,7.8,7.5,7.8,7.5s2.4,5.9,4.3,8.4
						c1.9,2.5,6.3,4.9,6.3,4.9s-2.4-6.5-1.4-9.4s3.3-3.6,6.8-0.6c3.4,3,8.6,6.4,12,11.2c3.4,4.9,5.8,9.7,12,17.4
						c8.3,10.3,16.9,11.7,16.9,11.7V84.4c0,0-3-1-6.9-5.7c-3.8-4.5-5.8-7.7-6.7-9.9c-0.9-2.2-2.5-8.6,0.9-11.2
						c3.3-2.7,8.7-1.4,8.7-1.4s-4.9-4.3-10.7-5c-4.1-0.5-13.1,0-16.5-2.2c-3.4-2.2-11.8-7.2-17.3-8.9c-5.5-1.7-15.9-4.5-17.2-6.5
						c-1.3-2.1-3.7-7.5-1.6-12.1c2.1-4.6,8.7-8.2,8.7-8.2s-11,0.5-14.4,3.8c-0.8,0.8-1.9,2-3,3.3c-0.1,0.2-0.3,0.3-0.4,0.5l-0.2,0.3
						l-0.1,0.1l-0.2,0.1c-0.5,0.3-1.1,0.7-1.6,1c-1.1,0.7-2.1,1.4-3.1,2.2c-4.1,2.9-7.8,5.8-10.3,7.4c-2.6,1.6-9,3.6-15,5.5
						c-6.1,1.9-11.7,3.6-14.4,4.6c-2.7,1-5.4,2.3-7.4,3.3C295.2,46.5,293.9,47.2,293.9,47.2z"/>
				</g>
			</g>
		</g>
	</g>
</g>
</svg>
